<svg width="14" height="18" viewBox="0 0 14 18" fill="none" xmlns="http://www.w3.org/2000/svg">
<path d="M6.78544 0C4.39085 0 2.44259 1.94826 2.44259 4.34286V7.05888H1.9C0.852177 7.05888 0 7.91122 0 8.95888V15.4732C0 16.5208 0.852177 17.3732 1.9 17.3732H11.6714C12.719 17.3732 13.5714 16.5208 13.5714 15.4732V8.95888C13.5714 7.91122 12.719 7.05888 11.6714 7.05888H11.1283V4.34286C11.1283 1.94826 9.18004 0 6.78544 0ZM4.07116 4.34286C4.07116 2.84631 5.28889 1.62857 6.78544 1.62857C8.28199 1.62857 9.49973 2.84631 9.49973 4.34286V7.05888H4.07116V4.34286ZM3.8 13.0357C3.34937 13.0357 2.98571 12.6721 2.98571 12.2215C2.98571 11.7708 3.34937 11.4072 3.8 11.4072C4.25035 11.4072 4.61429 11.7708 4.61429 12.2215C4.61429 12.6721 4.25035 13.0357 3.8 13.0357ZM6.78571 13.0357C6.33509 13.0357 5.97143 12.6721 5.97143 12.2215C5.97143 11.7708 6.33509 11.4072 6.78571 11.4072C7.23607 11.4072 7.6 11.7708 7.6 12.2215C7.6 12.6721 7.23607 13.0357 6.78571 13.0357ZM9.77143 13.0357C9.3208 13.0357 8.95714 12.6721 8.95714 12.2215C8.95714 11.7708 9.3208 11.4072 9.77143 11.4072C10.2218 11.4072 10.5857 11.7708 10.5857 12.2215C10.5857 12.6721 10.2218 13.0357 9.77143 13.0357Z" fill="#787d7f"/>
</svg>
