<svg width="24" height="24" viewBox="0 0 24 24" fill="none" xmlns="http://www.w3.org/2000/svg">
<path d="M13.6185 14.2287C13.6185 12.4151 13.6185 11.5082 14.1947 10.9448C14.7709 10.3813 15.6984 10.3813 17.5533 10.3813C19.4082 10.3813 20.3356 10.3813 20.9119 10.9448C21.4881 11.5082 21.4881 12.4151 21.4881 14.2287V16.1524C21.4881 17.9661 21.4881 18.8729 20.9119 19.4364C20.3356 19.9998 19.4082 19.9998 17.5533 19.9998C15.6984 19.9998 14.7709 19.9998 14.1947 19.4364C13.6185 18.8729 13.6185 17.9661 13.6185 16.1524V14.2287Z" fill="#2F8BFF"/>
<path d="M4 8.28328C4 10.097 4 11.0038 4.57624 11.5672C5.15248 12.1307 6.07993 12.1307 7.93482 12.1307C9.78972 12.1307 10.7172 12.1307 11.2934 11.5672C11.8696 11.0038 11.8696 10.097 11.8696 8.28328V6.35959C11.8696 4.54592 11.8696 3.63908 11.2934 3.07564C10.7172 2.51221 9.78972 2.51221 7.93482 2.51221C6.07993 2.51221 5.15248 2.51221 4.57624 3.07564C4 3.63908 4 4.54592 4 6.35959V8.28328Z" fill="#2F8BFF"/>
<path d="M13.6185 5.57263C13.6185 4.62197 13.6185 4.14665 13.7682 3.77171C13.9679 3.27178 14.3509 2.87459 14.833 2.66751C15.1945 2.51221 15.6529 2.51221 16.5696 2.51221H18.537C19.4537 2.51221 19.912 2.51221 20.2736 2.66751C20.7557 2.87459 21.1387 3.27178 21.3383 3.77171C21.4881 4.14665 21.4881 4.62197 21.4881 5.57263C21.4881 6.52328 21.4881 6.9986 21.3383 7.37355C21.1387 7.87347 20.7557 8.27066 20.2736 8.47774C19.912 8.63304 19.4537 8.63304 18.537 8.63304H16.5696C15.6529 8.63304 15.1945 8.63304 14.833 8.47774C14.3509 8.27066 13.9679 7.87347 13.7682 7.37355C13.6185 6.9986 13.6185 6.52328 13.6185 5.57263Z" fill="#2F8BFF"/>
<path d="M4 16.9398C4 17.8905 4 18.3658 4.14976 18.7407C4.34944 19.2407 4.73244 19.6378 5.21452 19.8449C5.57607 20.0002 6.03442 20.0002 6.95112 20.0002H8.91853C9.83523 20.0002 10.2936 20.0002 10.6551 19.8449C11.1372 19.6378 11.5202 19.2407 11.7199 18.7407C11.8696 18.3658 11.8696 17.8905 11.8696 16.9398C11.8696 15.9892 11.8696 15.5138 11.7199 15.1389C11.5202 14.639 11.1372 14.2418 10.6551 14.0347C10.2936 13.8794 9.83523 13.8794 8.91853 13.8794H6.95112C6.03442 13.8794 5.57607 13.8794 5.21452 14.0347C4.73244 14.2418 4.34944 14.639 4.14976 15.1389C4 15.5138 4 15.9892 4 16.9398Z" fill="#2F8BFF"/>
</svg>
