<svg width="20" height="21" viewBox="0 0 20 21" fill="none" xmlns="http://www.w3.org/2000/svg">
<path d="M6.03333 1.95996H4.45C2.625 1.95996 1.66666 2.91829 1.66666 4.73496V6.31829C1.66666 8.13496 2.625 9.09329 4.44166 9.09329H6.025C7.84166 9.09329 8.8 8.13496 8.8 6.31829V4.73496C8.80833 2.91829 7.85 1.95996 6.03333 1.95996Z" fill="white" fill-opacity="0.5"/>
<path d="M15.5583 1.95996H13.975C12.1583 1.95996 11.2 2.91829 11.2 4.73496V6.31829C11.2 8.13496 12.1583 9.09329 13.975 9.09329H15.5583C17.375 9.09329 18.3333 8.13496 18.3333 6.31829V4.73496C18.3333 2.91829 17.375 1.95996 15.5583 1.95996Z" fill="white" fill-opacity="0.5"/>
<path d="M15.5583 11.4854H13.975C12.1583 11.4854 11.2 12.4437 11.2 14.2604V15.8437C11.2 17.6604 12.1583 18.6187 13.975 18.6187H15.5583C17.375 18.6187 18.3333 17.6604 18.3333 15.8437V14.2604C18.3333 12.4437 17.375 11.4854 15.5583 11.4854Z" fill="white" fill-opacity="0.5"/>
<path d="M6.03333 11.4854H4.45C2.625 11.4854 1.66666 12.4437 1.66666 14.2604V15.8437C1.66666 17.6687 2.625 18.627 4.44166 18.627H6.025C7.84166 18.627 8.8 17.6687 8.8 15.852V14.2687C8.80833 12.4437 7.85 11.4854 6.03333 11.4854Z" fill="white" fill-opacity="0.5"/>
</svg>
