<svg width="20" height="21" viewBox="0 0 20 21" fill="none" xmlns="http://www.w3.org/2000/svg">
<path d="M17.5 18.627H2.5C2.15833 18.627 1.875 18.3436 1.875 18.002C1.875 17.6603 2.15833 17.377 2.5 17.377H17.5C17.8417 17.377 18.125 17.6603 18.125 18.002C18.125 18.3436 17.8417 18.627 17.5 18.627Z" fill="white" fill-opacity="0.5"/>
<path d="M15.85 3.19351C14.2333 1.57684 12.65 1.53517 10.9917 3.19351L9.98334 4.20184C9.9 4.28517 9.86667 4.41851 9.9 4.53517C10.5333 6.74351 12.3 8.51017 14.5083 9.14351C14.5417 9.15184 14.575 9.16017 14.6083 9.16017C14.7 9.16017 14.7833 9.12684 14.85 9.06017L15.85 8.05184C16.675 7.23517 17.075 6.44351 17.075 5.64351C17.0833 4.81851 16.6833 4.01851 15.85 3.19351Z" fill="white" fill-opacity="0.5"/>
<path d="M13.0083 9.90163C12.7667 9.78496 12.5333 9.66829 12.3083 9.53496C12.125 9.42663 11.95 9.30996 11.775 9.18496C11.6333 9.09329 11.4667 8.95996 11.3083 8.82663C11.2917 8.81829 11.2333 8.76829 11.1667 8.70163C10.8917 8.46829 10.5833 8.16829 10.3083 7.83496C10.2833 7.81829 10.2417 7.75996 10.1833 7.68496C10.1 7.58496 9.95833 7.41829 9.83333 7.22663C9.73333 7.10163 9.61666 6.91829 9.50833 6.73496C9.375 6.50996 9.25833 6.28496 9.14166 6.05163V6.05163C8.9887 5.72385 8.55849 5.62647 8.30271 5.88224L3.61666 10.5683C3.50833 10.6766 3.40833 10.885 3.38333 11.0266L2.93333 14.2183C2.85 14.785 3.00833 15.3183 3.35833 15.6766C3.65833 15.9683 4.075 16.1266 4.525 16.1266C4.625 16.1266 4.725 16.1183 4.825 16.1016L8.025 15.6516C8.175 15.6266 8.38333 15.5266 8.48333 15.4183L13.1771 10.7245C13.4278 10.4739 13.3336 10.0426 13.0083 9.90163V9.90163Z" fill="white" fill-opacity="0.5"/>
</svg>
