<svg width="32" height="32" viewBox="0 0 32 32" fill="none" xmlns="http://www.w3.org/2000/svg">
<path d="M16 32C24.8366 32 32 24.8366 32 16C32 7.16344 24.8366 0 16 0C7.16344 0 0 7.16344 0 16C0 24.8366 7.16344 32 16 32Z" fill="url(#paint0_linear_5861_10700)"/>
<path d="M13.6012 12.9498C14.2212 11.5861 17.2962 12.0073 17.5443 13.5948C16.4531 14.9342 15.8825 19.7942 16.9 20.018C17.2968 20.0923 17.9168 18.8029 18.2393 16.9679C18.3137 16.5711 19.3056 16.6705 19.2068 17.1661C18.6362 20.0679 17.9918 24.2586 15.8337 24.2586C11.8162 24.2586 12.585 15.2067 13.6018 12.9504L13.6012 12.9498ZM14.5431 9.77545C14.5431 8.65982 15.4606 7.7417 16.6012 7.7417C17.7418 7.7417 18.635 8.6592 18.635 9.77545C18.635 10.8917 17.7175 11.8336 16.6012 11.8336C15.485 11.8336 14.5431 10.9161 14.5431 9.77545Z" fill="white"/>
<defs>
<linearGradient id="paint0_linear_5861_10700" x1="0" y1="0" x2="38.6558" y2="5.17497" gradientUnits="userSpaceOnUse">
<stop stop-color="#2F57FF"/>
<stop offset="1" stop-color="#2FA3FF"/>
</linearGradient>
</defs>
</svg>
