<svg width="20" height="21" viewBox="0 0 20 21" fill="none" xmlns="http://www.w3.org/2000/svg">
<path d="M6.56666 10.3516C6.56666 10.01 6.85 9.72663 7.19166 9.72663H11.7583V2.67663C11.75 2.27663 11.4333 1.95996 11.0333 1.95996C6.125 1.95996 2.7 5.38496 2.7 10.2933C2.7 15.2016 6.125 18.6266 11.0333 18.6266C11.425 18.6266 11.75 18.31 11.75 17.91V10.9683H7.19166C6.84166 10.9766 6.56666 10.6933 6.56666 10.3516Z" fill="white" fill-opacity="0.5"/>
<path d="M17.1167 9.91025L14.75 7.53525C14.5083 7.29359 14.1083 7.29359 13.8667 7.53525C13.625 7.77692 13.625 8.17692 13.8667 8.41859L15.1667 9.71859H11.75V10.9686H15.1583L13.8583 12.2686C13.6167 12.5103 13.6167 12.9103 13.8583 13.1519C13.9833 13.2769 14.1417 13.3353 14.3 13.3353C14.4583 13.3353 14.6167 13.2769 14.7417 13.1519L17.1083 10.7769C17.3583 10.5436 17.3583 10.1519 17.1167 9.91025Z" fill="white" fill-opacity="0.5"/>
</svg>
