<svg width="24" height="24" viewBox="0 0 24 24" fill="none" xmlns="http://www.w3.org/2000/svg">
<path d="M15.6223 4H8.37778C7.41552 4 6.9344 4 6.54775 4.23896C6.16111 4.47792 5.94594 4.90825 5.51561 5.76892L4.39272 8.60743C4.13329 9.26324 3.9063 10.0362 4.343 10.59C4.63598 10.9615 5.09012 11.2 5.6 11.2C6.48365 11.2 7.2 10.4837 7.2 9.6C7.2 10.4837 7.91634 11.2 8.8 11.2C9.68365 11.2 10.4 10.4837 10.4 9.6C10.4 10.4837 11.1163 11.2 12 11.2C12.8837 11.2 13.6 10.4837 13.6 9.6C13.6 10.4837 14.3163 11.2 15.2 11.2C16.0837 11.2 16.8 10.4837 16.8 9.6C16.8 10.4837 17.5163 11.2 18.4 11.2C18.9099 11.2 19.364 10.9615 19.657 10.59C20.0938 10.0362 19.8668 9.26324 19.6073 8.60743L18.4845 5.76892C18.0541 4.90825 17.839 4.47792 17.4523 4.23896C17.0657 4 16.5845 4 15.6223 4Z" fill="#2F8BFF"/>
<path fill-rule="evenodd" clip-rule="evenodd" d="M18.4 19.4003H20C20.3314 19.4003 20.6 19.6689 20.6 20.0003C20.6 20.3317 20.3314 20.6003 20 20.6003H4.00002C3.66865 20.6003 3.40002 20.3317 3.40002 20.0003C3.40002 19.6689 3.66865 19.4003 4.00002 19.4003H5.60002L5.60003 12.4003C6.19493 12.4003 6.74649 12.2148 7.20003 11.8984C7.65356 12.2148 8.20513 12.4003 8.80003 12.4003C9.39493 12.4003 9.94649 12.2148 10.4 11.8984C10.8536 12.2148 11.4051 12.4003 12 12.4003C12.5949 12.4003 13.1465 12.2148 13.6 11.8984C14.0536 12.2148 14.6051 12.4003 15.2 12.4003C15.7949 12.4003 16.3465 12.2148 16.8 11.8984C17.2536 12.2148 17.8051 12.4003 18.4 12.4003L18.4 19.4003ZM10 19.4003H14V17.2003C14 16.4526 14 16.0788 13.8393 15.8003C13.7339 15.6179 13.5824 15.4664 13.4 15.3611C13.1216 15.2003 12.7477 15.2003 12 15.2003C11.2523 15.2003 10.8785 15.2003 10.6 15.3611C10.4176 15.4664 10.2661 15.6179 10.1608 15.8003C10 16.0788 10 16.4526 10 17.2003V19.4003Z" fill="#2F8BFF"/>
</svg>
