<svg width="24" height="24" viewBox="0 0 24 24" fill="none" xmlns="http://www.w3.org/2000/svg">
<path d="M20.19 14.0598L19.06 12.1798C18.81 11.7698 18.59 10.9798 18.59 10.4998V8.6298C18.59 4.9998 15.64 2.0498 12.02 2.0498C8.38999 2.0598 5.43999 4.9998 5.43999 8.6298V10.4898C5.43999 10.9698 5.21999 11.7598 4.97999 12.1698L3.84999 14.0498C3.41999 14.7798 3.31999 15.6098 3.58999 16.3298C3.85999 17.0598 4.46999 17.6398 5.26999 17.8998C6.34999 18.2598 7.43999 18.5198 8.54999 18.7098C8.65999 18.7298 8.76999 18.7398 8.87999 18.7598C9.01999 18.7798 9.16999 18.7998 9.31999 18.8198C9.57999 18.8598 9.83999 18.8898 10.11 18.9098C10.74 18.9698 11.38 18.9998 12.02 18.9998C12.65 18.9998 13.28 18.9698 13.9 18.9098C14.13 18.8898 14.36 18.8698 14.58 18.8398C14.76 18.8198 14.94 18.7998 15.12 18.7698C15.23 18.7598 15.34 18.7398 15.45 18.7198C16.57 18.5398 17.68 18.2598 18.76 17.8998C19.53 17.6398 20.12 17.0598 20.4 16.3198C20.68 15.5698 20.6 14.7498 20.19 14.0598ZM12.75 9.9998C12.75 10.4198 12.41 10.7598 11.99 10.7598C11.57 10.7598 11.23 10.4198 11.23 9.9998V6.89981C11.23 6.4798 11.57 6.1398 11.99 6.1398C12.41 6.1398 12.75 6.4798 12.75 6.89981V9.9998Z" fill="#2F8BFF"/>
<path d="M14.83 20.01C14.41 21.17 13.3 22 12 22C11.21 22 10.43 21.68 9.87999 21.11C9.55999 20.81 9.31999 20.41 9.17999 20C9.30999 20.02 9.43999 20.03 9.57999 20.05C9.80999 20.08 10.05 20.11 10.29 20.13C10.86 20.18 11.44 20.21 12.02 20.21C12.59 20.21 13.16 20.18 13.72 20.13C13.93 20.11 14.14 20.1 14.34 20.07C14.5 20.05 14.66 20.03 14.83 20.01Z" fill="#2F8BFF"/>
<path d="M18 8.5C19.933 8.5 21.5 6.933 21.5 5C21.5 3.067 19.933 1.5 18 1.5C16.067 1.5 14.5 3.067 14.5 5C14.5 6.933 16.067 8.5 18 8.5Z" fill="#EC5353" stroke="#2D3337"/>
</svg>
