<svg width="20" height="21" viewBox="0 0 20 21" fill="none" xmlns="http://www.w3.org/2000/svg">
<path d="M10 1.95996C7.81666 1.95996 6.04166 3.73496 6.04166 5.91829C6.04166 8.05996 7.71666 9.79329 9.9 9.8683C9.96666 9.85996 10.0333 9.85996 10.0833 9.8683C10.1 9.8683 10.1083 9.8683 10.125 9.8683C10.1333 9.8683 10.1333 9.8683 10.1417 9.8683C12.275 9.79329 13.95 8.05996 13.9583 5.91829C13.9583 3.73496 12.1833 1.95996 10 1.95996Z" fill="#787d7f"/>
<path d="M14.2333 12.0854C11.9083 10.5354 8.11666 10.5354 5.775 12.0854C4.71666 12.7937 4.13333 13.752 4.13333 14.777C4.13333 15.802 4.71666 16.752 5.76666 17.452C6.93333 18.2354 8.46666 18.627 10 18.627C11.5333 18.627 13.0667 18.2354 14.2333 17.452C15.2833 16.7437 15.8667 15.7937 15.8667 14.7604C15.8583 13.7354 15.2833 12.7854 14.2333 12.0854Z" fill="#787d7f"/>
</svg>
