<svg width="20" height="21" viewBox="0 0 20 21" fill="none" xmlns="http://www.w3.org/2000/svg">
<path d="M17.5584 4.85817C16.2167 4.72484 14.875 4.62484 13.525 4.54984V4.5415L13.3417 3.45817C13.2167 2.6915 13.0334 1.5415 11.0834 1.5415H8.90005C6.95838 1.5415 6.77505 2.6415 6.64172 3.44984L6.46672 4.5165C5.69172 4.5665 4.91672 4.6165 4.14172 4.6915L2.44172 4.85817C2.09172 4.8915 1.84172 5.19984 1.87505 5.5415C1.90838 5.88317 2.20838 6.13317 2.55838 6.09984L4.25838 5.93317C8.62505 5.49984 13.0251 5.6665 17.4417 6.10817C17.4667 6.10817 17.4834 6.10817 17.5084 6.10817C17.8251 6.10817 18.1 5.8665 18.1334 5.5415C18.1584 5.19984 17.9084 4.8915 17.5584 4.85817Z" fill="#F76868"/>
<path d="M16.025 7.2835C15.825 7.07516 15.55 6.9585 15.2666 6.9585H4.73329C4.44995 6.9585 4.16662 7.07516 3.97495 7.2835C3.78329 7.49183 3.67495 7.77516 3.69162 8.06683L4.20829 16.6168C4.29995 17.8835 4.41662 19.4668 7.32495 19.4668H12.675C15.5833 19.4668 15.7 17.8918 15.7916 16.6168L16.3083 8.07516C16.325 7.77516 16.2166 7.49183 16.025 7.2835ZM11.3833 15.2918H8.60829C8.26662 15.2918 7.98329 15.0085 7.98329 14.6668C7.98329 14.3252 8.26662 14.0418 8.60829 14.0418H11.3833C11.725 14.0418 12.0083 14.3252 12.0083 14.6668C12.0083 15.0085 11.725 15.2918 11.3833 15.2918ZM12.0833 11.9585H7.91662C7.57495 11.9585 7.29162 11.6752 7.29162 11.3335C7.29162 10.9918 7.57495 10.7085 7.91662 10.7085H12.0833C12.425 10.7085 12.7083 10.9918 12.7083 11.3335C12.7083 11.6752 12.425 11.9585 12.0833 11.9585Z" fill="#F76868"/>
</svg>
