<svg width="13" height="12" viewBox="0 0 13 12" fill="none" xmlns="http://www.w3.org/2000/svg">
<path d="M11.5 1.99822V4.99882M11.5 4.99882H8.4994M11.5 4.99882L9.18453 2.81838C8.4947 2.12811 7.59921 1.68074 6.633 1.5437C5.66679 1.40665 4.68221 1.58734 3.82763 2.05855C2.97305 2.52975 2.29477 3.26595 1.895 4.15618C1.49522 5.04642 1.39562 6.04248 1.61119 6.99425C1.82676 7.94602 2.34583 8.80195 3.09018 9.43305C3.83453 10.0641 4.76383 10.4362 5.73805 10.4932C6.71226 10.5502 7.67861 10.289 8.49147 9.74903C9.30433 9.20903 9.91967 8.41947 10.2447 7.49932" stroke="#F35252" stroke-width="1.5" stroke-linecap="round" stroke-linejoin="round"/>
</svg>
