<svg width="64" height="64" viewBox="0 0 64 64" fill="none" xmlns="http://www.w3.org/2000/svg">
<rect x="8" y="8" width="48" height="48" rx="24" fill="#F2C94C"/>
<path d="M32.1177 20.1191C29.7443 20.1191 27.4242 20.8464 25.4508 22.2089C23.4774 23.5714 21.9394 25.5081 21.0311 27.7739C20.1229 30.0397 19.8852 32.5329 20.3483 34.9383C20.8113 37.3436 21.9542 39.5531 23.6324 41.2873C25.3106 43.0214 27.4488 44.2024 29.7766 44.6809C32.1044 45.1593 34.5172 44.9138 36.7099 43.9752C38.9026 43.0367 40.7767 41.4474 42.0953 39.4082C43.4139 37.369 44.1177 34.9716 44.1177 32.5191C44.1146 29.2314 42.8494 26.0793 40.5996 23.7545C38.3498 21.4297 35.2993 20.1223 32.1177 20.1191ZM32.1177 43.0114C30.1094 43.0114 28.1463 42.3961 26.4765 41.2432C24.8067 40.0903 23.5053 38.4516 22.7367 36.5344C21.9682 34.6172 21.7671 32.5075 22.1589 30.4722C22.5507 28.4369 23.5178 26.5673 24.9378 25.1C26.3579 23.6326 28.1671 22.6333 30.1368 22.2284C32.1064 21.8236 34.148 22.0314 36.0034 22.8255C37.8588 23.6196 39.4446 24.9645 40.5603 26.6899C41.676 28.4154 42.2715 30.444 42.2715 32.5191C42.2685 35.3009 41.1977 37.9678 39.2942 39.9348C37.3906 41.9018 34.8097 43.0083 32.1177 43.0114ZM31.1946 33.473V26.7961C31.1946 26.5431 31.2919 26.3005 31.465 26.1216C31.6381 25.9427 31.8729 25.8422 32.1177 25.8422C32.3625 25.8422 32.5973 25.9427 32.7704 26.1216C32.9435 26.3005 33.0408 26.5431 33.0408 26.7961V33.473C33.0408 33.726 32.9435 33.9686 32.7704 34.1475C32.5973 34.3263 32.3625 34.4268 32.1177 34.4268C31.8729 34.4268 31.6381 34.3263 31.465 34.1475C31.2919 33.9686 31.1946 33.726 31.1946 33.473ZM33.5023 37.7653C33.5023 38.0483 33.4211 38.3249 33.2689 38.5602C33.1168 38.7955 32.9006 38.9789 32.6475 39.0871C32.3945 39.1954 32.1161 39.2238 31.8476 39.1686C31.579 39.1134 31.3322 38.9771 31.1386 38.777C30.945 38.5769 30.8131 38.322 30.7597 38.0444C30.7062 37.7669 30.7337 37.4792 30.8385 37.2178C30.9433 36.9563 31.1207 36.7329 31.3484 36.5757C31.5761 36.4184 31.8438 36.3345 32.1177 36.3345C32.4849 36.3345 32.8371 36.4853 33.0967 36.7536C33.3564 37.0219 33.5023 37.3858 33.5023 37.7653Z" fill="white"/>
<rect x="4" y="4" width="56" height="56" rx="28" stroke="#F2C94C" stroke-opacity="0.3" stroke-width="8"/>
</svg>
