<svg width="68" height="14" viewBox="0 0 68 14" fill="none" xmlns="http://www.w3.org/2000/svg">
<path d="M10.0222 6.93903H11.2638C11.3918 6.93903 11.507 7.0456 11.507 7.16402V11.486C11.507 11.5571 11.4814 11.6163 11.4174 11.6637C10.8158 12.1373 10.1118 12.5044 9.31826 12.7649C8.48627 13.0372 7.61588 13.1793 6.7199 13.1793C5.43992 13.1793 4.30073 12.907 3.27675 12.3504C2.25277 11.8058 1.44638 11.0479 0.870389 10.0769C0.281598 9.11781 0 8.02842 0 6.82062C0 5.61282 0.294398 4.52344 0.870389 3.55246C1.45918 2.58148 2.26557 1.82365 3.28955 1.27895C4.31353 0.734261 5.47832 0.461914 6.7583 0.461914C7.76948 0.461914 8.69107 0.62769 9.51025 0.947402C10.2654 1.24343 11.0718 1.78812 11.635 2.3565C11.7246 2.43939 11.7246 2.58148 11.635 2.66437L10.8414 3.44589C10.7518 3.54062 10.5982 3.54062 10.4958 3.45773C9.49745 2.59332 8.17908 2.03679 6.8223 2.03679C5.86231 2.03679 4.99192 2.23809 4.23673 2.65253C3.46875 3.05513 2.87996 3.62351 2.44476 4.35766C2.00957 5.07997 1.79197 5.90885 1.79197 6.82062C1.79197 7.72055 2.00957 8.53759 2.44476 9.2599C2.87996 9.98221 3.48155 10.5624 4.23673 10.9769C5.00472 11.3913 5.86231 11.5926 6.8095 11.5926C7.89748 11.5926 8.84466 11.3439 9.66385 10.8585C9.72785 10.8229 9.77905 10.74 9.77905 10.669V7.16402C9.77905 7.03376 9.89425 6.93903 10.0222 6.93903Z" fill="white"/>
<path d="M23.0396 12.7293L17.8813 0.071047C17.8429 -0.0236823 17.7021 -0.0236823 17.6637 0.071047L12.5054 12.7293C12.4414 12.8714 12.5566 13.0371 12.7358 13.0371H14.1054C14.2078 13.0371 14.2974 12.9779 14.3358 12.895L17.6253 4.6299C17.6765 4.49964 17.8685 4.49964 17.9197 4.6299L21.2093 12.895C21.2477 12.9779 21.3373 13.0371 21.4397 13.0371H22.8093C22.9756 13.0371 23.0908 12.8714 23.0396 12.7293Z" fill="white"/>
<path d="M30.694 11.486H25.574C25.4332 11.486 25.3308 11.3795 25.3308 11.2611V0.828986C25.3308 0.710574 25.2284 0.604004 25.0876 0.604004H23.7693C23.6285 0.604004 23.5261 0.698733 23.5261 0.828986V9.99405L24.7676 13.0372H30.694C30.8347 13.0372 30.9371 12.9307 30.9371 12.8122V11.7229C30.9371 11.5926 30.8347 11.486 30.694 11.486Z" fill="white"/>
<path d="M36.4538 0.604004H37.7722C37.9002 0.604004 38.0154 0.710574 38.0154 0.828986V11.2729C38.0154 11.3913 38.1306 11.4979 38.2586 11.4979H43.3785C43.5065 11.4979 43.6217 11.6044 43.6217 11.7229V12.8241C43.6217 12.9425 43.5065 13.0491 43.3785 13.0491H36.4538C36.3258 13.0491 36.2106 12.9425 36.2106 12.8241V0.828986C36.2106 0.698733 36.313 0.604004 36.4538 0.604004Z" fill="white"/>
<path d="M32.8443 0.604004H34.1627C34.2906 0.604004 34.4059 0.710574 34.4059 0.828986V12.8122C34.4059 12.9307 34.2906 13.0372 34.1627 13.0372H32.8443C32.7163 13.0372 32.6011 12.9307 32.6011 12.8122V0.828986C32.6011 0.698733 32.7163 0.604004 32.8443 0.604004Z" fill="white"/>
<path d="M52.6968 11.711V12.8122C52.6968 12.9307 52.5816 13.0372 52.4536 13.0372H45.5545C45.4265 13.0372 45.3113 12.9307 45.3113 12.8122V0.828986C45.3113 0.710574 45.4265 0.604004 45.5545 0.604004H52.4536C52.5816 0.604004 52.6968 0.710574 52.6968 0.828986V1.93021C52.6968 2.04863 52.5816 2.1552 52.4536 2.1552H47.3592C47.2312 2.1552 47.116 2.26177 47.116 2.38018V5.84964C47.116 5.96805 47.2312 6.07462 47.3592 6.07462H51.2376C51.3656 6.07462 51.4808 6.18119 51.4808 6.29961V7.36531C51.4808 7.48372 51.3656 7.59029 51.2376 7.59029H47.3592C47.2312 7.59029 47.116 7.69686 47.116 7.81528V11.2847C47.116 11.4031 47.2312 11.5097 47.3592 11.5097H52.4536C52.5816 11.486 52.6968 11.5926 52.6968 11.711Z" fill="white"/>
<path d="M56.8439 12.3502C55.7816 11.8055 54.9496 11.0358 54.3352 10.0649C53.7336 9.09388 53.4264 8.01634 53.4264 6.80854C53.4264 5.61258 53.7336 4.53503 54.3352 3.55222C54.9368 2.58124 55.7816 1.82341 56.8439 1.26687C57.9063 0.722176 59.1095 0.437988 60.4279 0.437988C61.7463 0.437988 62.9366 0.710335 63.999 1.26687C65.0614 1.81156 65.8934 2.58124 66.495 3.54037C67.0966 4.51135 67.391 5.5889 67.391 6.7967C67.391 8.00449 67.0966 9.09388 66.495 10.053C65.8934 11.024 65.0614 11.7818 63.999 12.3265C62.9366 12.8831 61.7463 13.1554 60.4279 13.1554C59.1095 13.1791 57.9063 12.8949 56.8439 12.3502ZM63.039 10.9766C63.807 10.5622 64.4214 9.99381 64.8566 9.25966C65.3046 8.53735 65.5222 7.72031 65.5222 6.82038C65.5222 5.92045 65.3046 5.10341 64.8566 4.3811C64.4086 3.65879 63.807 3.07857 63.039 2.66413C62.2711 2.24969 61.4007 2.04839 60.4407 2.04839C59.4807 2.04839 58.5975 2.26153 57.8167 2.66413C57.0359 3.07857 56.4215 3.64695 55.9736 4.3811C55.5256 5.10341 55.308 5.92045 55.308 6.82038C55.308 7.72031 55.5256 8.53735 55.9736 9.25966C56.4215 9.98197 57.0359 10.5622 57.8167 10.9766C58.5975 11.3911 59.4679 11.5924 60.4407 11.5924C61.4007 11.5924 62.2583 11.3911 63.039 10.9766Z" fill="white"/>
</svg>
