<svg width="20" height="20" viewBox="0 0 20 20" fill="none" xmlns="http://www.w3.org/2000/svg">
<g clip-path="url(#clip0_8517_1147)">
<path d="M15.0266 0H4.97344C2.22668 0 0 2.22668 0 4.97344V15.0266C0 17.7733 2.22668 20 4.97344 20H15.0266C17.7733 20 20 17.7733 20 15.0266V4.97344C20 2.22668 17.7733 0 15.0266 0Z" fill="url(#paint0_linear_8517_1147)"/>
<path d="M16.0906 4.44294C16.0755 4.29676 16.0068 4.16135 15.8977 4.06287C15.7886 3.96439 15.6469 3.90984 15.4999 3.90974H12.7851C12.7058 3.90771 12.6269 3.92157 12.5531 3.9505C12.4793 3.97944 12.412 4.02286 12.3552 4.07821C12.2984 4.13357 12.2532 4.19973 12.2224 4.2728C12.1916 4.34588 12.1757 4.42438 12.1757 4.50369C12.1757 4.58299 12.1916 4.6615 12.2224 4.73457C12.2532 4.80764 12.2984 4.87381 12.3552 4.92916C12.412 4.98451 12.4793 5.02794 12.5531 5.05687C12.6269 5.08581 12.7058 5.09967 12.7851 5.09763H14.0742L11.5847 7.60896C11.5298 7.66434 11.4863 7.72999 11.4568 7.80216C11.4272 7.87434 11.4122 7.95162 11.4125 8.02961C11.4129 8.1076 11.4285 8.18476 11.4587 8.25668C11.4888 8.32861 11.5329 8.39389 11.5882 8.4488C11.6436 8.50372 11.7093 8.54719 11.7814 8.57673C11.8536 8.60627 11.9309 8.62131 12.0089 8.62098C12.0869 8.62066 12.164 8.60497 12.236 8.57483C12.3079 8.54468 12.3732 8.50066 12.4281 8.44529L14.9074 5.94529V7.21951C14.9053 7.29879 14.9192 7.37767 14.9481 7.45151C14.9771 7.52535 15.0205 7.59265 15.0758 7.64944C15.1312 7.70623 15.1974 7.75137 15.2704 7.78219C15.3435 7.813 15.422 7.82888 15.5013 7.82888C15.5806 7.82888 15.6591 7.813 15.7322 7.78219C15.8053 7.75137 15.8714 7.70623 15.9268 7.64944C15.9821 7.59265 16.0256 7.52535 16.0545 7.45151C16.0834 7.37767 16.0973 7.29879 16.0953 7.21951V4.50388C16.0937 4.48318 16.0937 4.46287 16.0906 4.44294ZM7.57339 11.5547L5.09409 14.0547V12.7816C5.09613 12.7023 5.08227 12.6235 5.05333 12.5496C5.0244 12.4758 4.98097 12.4085 4.92562 12.3517C4.87027 12.2949 4.8041 12.2498 4.73103 12.2189C4.65796 12.1881 4.57945 12.1722 4.50015 12.1722C4.42084 12.1722 4.34234 12.1881 4.26926 12.2189C4.19619 12.2498 4.13003 12.2949 4.07467 12.3517C4.01932 12.4085 3.9759 12.4758 3.94696 12.5496C3.91803 12.6235 3.90417 12.7023 3.9062 12.7816V15.4961C3.90618 15.5208 3.90775 15.5454 3.91089 15.5699C3.91089 15.5855 3.91519 15.6008 3.91831 15.616C3.9258 15.6528 3.93679 15.6887 3.95112 15.7234C3.95128 15.7247 3.95128 15.726 3.95112 15.7273C3.98012 15.7954 4.02144 15.8575 4.073 15.9105L4.07847 15.916L4.08433 15.9215C4.13727 15.9731 4.19941 16.0145 4.26753 16.0433H4.27144C4.30611 16.0578 4.34208 16.0689 4.37886 16.0765C4.39409 16.0797 4.40933 16.082 4.42495 16.084C4.44932 16.0869 4.47384 16.0885 4.49839 16.0886H7.21323C7.29251 16.0907 7.3714 16.0768 7.44523 16.0479C7.51907 16.019 7.58637 15.9755 7.64317 15.9202C7.69996 15.8648 7.74509 15.7987 7.77591 15.7256C7.80673 15.6525 7.82261 15.574 7.82261 15.4947C7.82261 15.4154 7.80673 15.3369 7.77591 15.2638C7.74509 15.1907 7.69996 15.1246 7.64317 15.0692C7.58637 15.0139 7.51907 14.9705 7.44523 14.9415C7.3714 14.9126 7.29251 14.8987 7.21323 14.9008H5.92417L8.41362 12.3894C8.52453 12.2776 8.58646 12.1263 8.5858 11.9688C8.58514 11.8113 8.52194 11.6605 8.41011 11.5496C8.29827 11.4387 8.14696 11.3767 7.98946 11.3774C7.83196 11.3781 7.68117 11.4413 7.57026 11.5531L7.57339 11.5547Z" fill="white"/>
</g>
<defs>
<linearGradient id="paint0_linear_8517_1147" x1="4.25" y1="-4.10714" x2="29.1374" y2="23.822" gradientUnits="userSpaceOnUse">
<stop stop-color="#2F53FF"/>
<stop offset="1" stop-color="#2FC1FF"/>
</linearGradient>
<clipPath id="clip0_8517_1147">
<rect width="20" height="20" fill="white"/>
</clipPath>
</defs>
</svg>
