<svg width="36" height="36" viewBox="0 0 36 36" fill="none" xmlns="http://www.w3.org/2000/svg">
<rect width="36" height="36" rx="3" fill="url(#paint0_linear_8636_995)"/>
<g clip-path="url(#clip0_8636_995)">
<path d="M13.208 22.6223C11.8739 22.6223 10.6872 21.7681 10.2562 20.4964L10.2271 20.4006C10.1254 20.0638 10.0829 19.7806 10.0829 19.4972V13.8153L8.06118 20.5639C7.80117 21.5565 8.39369 22.5856 9.38781 22.8597L22.2741 26.3108C22.4308 26.3516 22.5921 26.3723 22.7541 26.3724C23.584 26.3724 24.3424 25.8216 24.555 25.0098L25.3058 22.6223H13.208ZM15.4997 13.8721C16.419 13.8721 17.1663 13.1245 17.1663 12.2053C17.1663 11.2861 16.419 10.5386 15.4997 10.5386C14.5805 10.5386 13.833 11.2862 13.833 12.2053C13.833 13.1245 14.5805 13.8721 15.4997 13.8721Z" fill="white"/>
<path d="M25.9165 8.03845H13.4162C12.268 8.03845 11.3329 8.97355 11.3329 10.1219V19.2887C11.3329 20.4372 12.268 21.3722 13.4162 21.3722H25.9165C27.065 21.3722 28 20.4372 28 19.2887V10.1219C28 8.97355 27.065 8.03845 25.9165 8.03845ZM13.4162 9.70521H25.9165C26.1467 9.70521 26.3333 9.89186 26.3333 10.1219V16.0379L23.7008 12.9661C23.4215 12.6386 23.0173 12.4636 22.5832 12.4537C22.1515 12.4561 21.7465 12.6478 21.4699 12.9795L18.3747 16.6945L17.3664 15.6886C16.7964 15.1187 15.8689 15.1187 15.2997 15.6886L12.9996 17.9879V10.1219C12.9996 9.89182 13.1863 9.70521 13.4162 9.70521Z" fill="white"/>
</g>
<defs>
<linearGradient id="paint0_linear_8636_995" x1="7.65" y1="-7.39286" x2="52.4473" y2="42.8797" gradientUnits="userSpaceOnUse">
<stop stop-color="#2F53FF"/>
<stop offset="1" stop-color="#2FC1FF"/>
</linearGradient>
<clipPath id="clip0_8636_995">
<rect width="20" height="20" fill="white" transform="translate(8 8)"/>
</clipPath>
</defs>
</svg>
