<svg width="20" height="20" viewBox="0 0 20 20" fill="none" xmlns="http://www.w3.org/2000/svg">
<g clip-path="url(#clip0_8517_1147)">
<path d="M15.0266 0H4.97344C2.22668 0 0 2.22668 0 4.97344V15.0266C0 17.7733 2.22668 20 4.97344 20H15.0266C17.7733 20 20 17.7733 20 15.0266V4.97344C20 2.22668 17.7733 0 15.0266 0Z" fill="url(#paint0_linear_8517_1147)"/>
<g clip-path="url(#clip1_8517_1147)">
<g clip-path="url(#clip2_8517_1147)">
<path d="M15.3555 4.04506C15.2803 4.07728 14.8721 4.47474 13.568 5.77885L11.8751 7.46967V6.39545C11.8751 5.70365 11.8665 5.29115 11.8514 5.23959C11.8385 5.19447 11.7956 5.11928 11.7547 5.07416C11.5442 4.84213 11.1704 4.88724 11.0157 5.1601L10.962 5.25678L10.9555 6.91107C10.9512 8.11849 10.9555 8.5976 10.9727 8.68138C11.0092 8.84681 11.1532 8.99076 11.3186 9.02728C11.4024 9.04447 11.8815 9.04877 13.0889 9.04447L14.7432 9.03803L14.8399 8.98431C15.1128 8.82963 15.1579 8.4558 14.9258 8.24525C14.8807 8.20443 14.8055 8.16146 14.7604 8.14857C14.7088 8.13353 14.2963 8.12494 13.6046 8.12494H12.5303L14.2212 6.43197C16.0044 4.64877 15.9979 4.65521 16.0001 4.46185C16.0001 4.36732 15.9227 4.18041 15.8583 4.12455C15.7874 4.06224 15.6284 3.99994 15.5381 3.99994C15.4909 3.99994 15.4092 4.02142 15.3555 4.04506Z" fill="white"/>
<path d="M6.27402 9.97266C5.91953 10.0564 5.80352 10.5098 6.07422 10.7547C6.11934 10.7955 6.19453 10.8385 6.23965 10.8514C6.29121 10.8664 6.70371 10.875 7.39551 10.875H8.46973L6.77891 12.5658C4.9957 14.3512 5 14.3447 5 14.5381C5 14.6283 5.0623 14.7873 5.12461 14.8582C5.18047 14.9227 5.36738 15 5.46191 15C5.65527 14.9979 5.64883 15.0043 7.43418 13.2211L9.125 11.5303V12.6045C9.125 13.2963 9.13359 13.7088 9.14863 13.7604C9.16152 13.8055 9.20449 13.8807 9.24531 13.9258C9.45586 14.1578 9.82969 14.1127 9.98438 13.8398L10.0381 13.7432L10.0445 12.0889C10.0488 10.8814 10.0445 10.4023 10.0273 10.3186C9.99297 10.166 9.84902 10.0135 9.70078 9.97695C9.58691 9.94688 6.39434 9.94258 6.27402 9.97266Z" fill="white"/>
</g>
</g>
</g>
<defs>
<linearGradient id="paint0_linear_8517_1147" x1="4.25" y1="-4.10714" x2="29.1374" y2="23.822" gradientUnits="userSpaceOnUse">
<stop stop-color="#2F53FF"/>
<stop offset="1" stop-color="#2FC1FF"/>
</linearGradient>
<clipPath id="clip0_8517_1147">
<rect width="20" height="20" fill="white"/>
</clipPath>
<clipPath id="clip1_8517_1147">
<rect width="682.667" height="682.667" fill="white" transform="translate(-335 -332)"/>
</clipPath>
<clipPath id="clip2_8517_1147">
<rect width="11" height="11" fill="white" transform="translate(5 4)"/>
</clipPath>
</defs>
</svg>
