<svg width="20" height="19" viewBox="0 0 20 19" fill="none" xmlns="http://www.w3.org/2000/svg">
<path d="M5.20795 14.6223C3.87385 14.6223 2.68718 13.7681 2.25623 12.4964L2.22709 12.4006C2.12545 12.0638 2.08287 11.7806 2.08287 11.4972V5.81534L0.061178 12.5639C-0.198829 13.5565 0.393686 14.5856 1.38781 14.8597L14.2741 18.3108C14.4308 18.3516 14.5921 18.3723 14.7541 18.3724C15.584 18.3724 16.3424 17.8216 16.555 17.0098L17.3058 14.6223H5.20795ZM7.49973 5.8721C8.41897 5.8721 9.16633 5.12454 9.16633 4.20534C9.16633 3.28613 8.41897 2.53857 7.49973 2.53857C6.58048 2.53857 5.83297 3.28617 5.83297 4.20534C5.83297 5.1245 6.58052 5.8721 7.49973 5.8721Z" fill="url(#paint0_linear_8517_1138)"/>
<path d="M17.9165 0.0384521H5.41622C4.26799 0.0384521 3.33289 0.973554 3.33289 2.12194V11.2887C3.33289 12.4372 4.26799 13.3722 5.41622 13.3722H17.9165C19.065 13.3722 20 12.4372 20 11.2887V2.12194C20 0.973554 19.065 0.0384521 17.9165 0.0384521ZM5.41622 1.70521H17.9165C18.1467 1.70521 18.3333 1.89186 18.3333 2.12194V8.03791L15.7008 4.96612C15.4215 4.63865 15.0173 4.4636 14.5832 4.45372C14.1515 4.45614 13.7465 4.64779 13.4699 4.97952L10.3747 8.69453L9.36636 7.68865C8.79642 7.11871 7.86886 7.11871 7.29967 7.68865L4.99965 9.98792V2.1219C4.99965 1.89182 5.18629 1.70521 5.41622 1.70521Z" fill="url(#paint1_linear_8517_1138)"/>
<defs>
<linearGradient id="paint0_linear_8517_1138" x1="3.67747" y1="-0.713018" x2="23.1053" y2="23.1161" gradientUnits="userSpaceOnUse">
<stop stop-color="#2F53FF"/>
<stop offset="1" stop-color="#2FC1FF"/>
</linearGradient>
<linearGradient id="paint1_linear_8517_1138" x1="6.87465" y1="-2.69973" x2="22.6642" y2="19.4494" gradientUnits="userSpaceOnUse">
<stop stop-color="#2F53FF"/>
<stop offset="1" stop-color="#2FC1FF"/>
</linearGradient>
</defs>
</svg>
