<svg width="20" height="18" viewBox="0 0 20 18" fill="none" xmlns="http://www.w3.org/2000/svg">
<path d="M10.1778 16.5104C10.1119 16.5488 10.053 16.5828 10.0017 16.6122C9.95018 16.5823 9.89095 16.5476 9.82462 16.5085C9.55582 16.3497 9.17056 16.1162 8.70771 15.8189C7.78104 15.2238 6.54811 14.3762 5.31767 13.3639C4.08475 12.3497 2.86924 11.1822 1.96574 9.94986C1.05814 8.7119 0.5 7.45568 0.5 6.25341C0.5 3.52514 2.7117 1.3134 5.44002 1.31341L5.44392 1.31338C6.26489 1.30698 7.07425 1.50753 7.79725 1.89651C8.52025 2.28549 9.1336 2.85036 9.58065 3.53897L9.99757 4.18117L10.4179 3.54122C10.8687 2.85503 11.4833 2.292 12.2063 1.90303C12.9291 1.51415 13.7374 1.3115 14.5582 1.31339C17.2816 1.32698 19.4861 3.53127 19.5 6.25466C19.4996 7.47797 18.9403 8.7442 18.0339 9.98417C17.1307 11.2196 15.9158 12.3842 14.6833 13.3932C13.4533 14.4002 12.2207 15.2401 11.2943 15.8289C10.8316 16.123 10.4465 16.3536 10.1778 16.5104Z" stroke="url(#paint0_linear_8517_1167)"/>
<defs>
<linearGradient id="paint0_linear_8517_1167" x1="4.5" y1="-3.28014" x2="14.8657" y2="22.916" gradientUnits="userSpaceOnUse">
<stop stop-color="#305CFF"/>
<stop offset="1" stop-color="#309EFF"/>
</linearGradient>
</defs>
</svg>
