<svg width="36" height="36" viewBox="0 0 36 36" fill="none" xmlns="http://www.w3.org/2000/svg">
<rect width="36" height="36" rx="3" fill="url(#paint0_linear_8636_996)"/>
<g clip-path="url(#clip0_8636_996)">
<path d="M23.0164 21.4293C23.2461 21.5465 23.4918 21.6699 23.7559 21.8008C24.7188 22.277 25.4008 22.5703 25.8989 22.7492C26.7192 23.0313 27.5242 22.3547 27.7426 21.1723C27.8668 20.4512 27.9942 19.4512 28 18.0742C28.0059 16.6973 27.8793 15.6977 27.7586 14.9774C27.5461 13.7957 26.743 13.1262 25.9203 13.4172C25.4203 13.6024 24.7356 13.902 23.7692 14.3879C23.5056 14.5207 23.2594 14.6465 23.0305 14.7652C23.027 14.7652 23.2942 16.1586 23.293 18.0832C23.2935 19.2043 23.201 20.3235 23.0164 21.4293ZM21.7594 14.6285C21.5824 13.3094 20.5043 12.2336 19.2528 12.1027C18.4938 12.0234 16.5625 11.9711 15.1485 12.0063C13.7321 12.0332 11.7949 12.1676 11.0282 12.2797C9.76409 12.4645 8.5637 13.5332 8.30198 14.7895C8.14886 15.5469 8.00237 16.5832 8.00003 18C7.99768 19.4168 8.14886 20.4531 8.30003 21.2117C8.56175 22.468 9.76214 23.5367 11.0262 23.7215C11.793 23.8324 13.7301 23.9668 15.1465 23.9949C16.5625 24.0301 18.4938 23.9793 19.2528 23.8984C20.5028 23.7676 21.5821 22.6918 21.7594 21.3727C21.8602 20.5781 21.9492 19.4899 21.95 18.0012C21.9508 16.5125 21.8602 15.4219 21.7594 14.6285Z" fill="white"/>
</g>
<defs>
<linearGradient id="paint0_linear_8636_996" x1="7.65" y1="-7.39286" x2="52.4473" y2="42.8797" gradientUnits="userSpaceOnUse">
<stop stop-color="#2F53FF"/>
<stop offset="1" stop-color="#2FC1FF"/>
</linearGradient>
<clipPath id="clip0_8636_996">
<rect width="20" height="20" fill="white" transform="translate(8 8)"/>
</clipPath>
</defs>
</svg>
