<svg width="20" height="12" viewBox="0 0 20 12" fill="none" xmlns="http://www.w3.org/2000/svg">
<path d="M15.0164 9.42931C15.2461 9.5465 15.4918 9.66993 15.7559 9.80079C16.7188 10.277 17.4008 10.5703 17.8989 10.7492C18.7192 11.0313 19.5242 10.3547 19.7426 9.17228C19.8668 8.45118 19.9942 7.45118 20 6.07423C20.0059 4.69728 19.8793 3.69767 19.7586 2.97736C19.5461 1.79571 18.743 1.12618 17.9203 1.4172C17.4203 1.60236 16.7356 1.90196 15.7692 2.3879C15.5056 2.52071 15.2594 2.6465 15.0305 2.76525C15.027 2.76525 15.2942 4.15861 15.293 6.08321C15.2935 7.20431 15.201 8.32351 15.0164 9.42931ZM13.7594 2.62853C13.5824 1.30939 12.5043 0.233606 11.2528 0.102746C10.4938 0.0234493 8.56253 -0.0288945 7.14846 0.00626173C5.73206 0.0332149 3.79495 0.16759 3.02815 0.279699C1.76409 0.464465 0.563699 1.53321 0.30198 2.78946C0.148855 3.54689 0.00237066 4.58321 2.69055e-05 6.00001C-0.00231684 7.41681 0.148855 8.45314 0.300027 9.21173C0.561746 10.468 1.76214 11.5367 3.0262 11.7215C3.793 11.8324 5.7301 11.9668 7.14651 11.9949C8.56253 12.0301 10.4938 11.9793 11.2528 11.8984C12.5028 11.7676 13.5821 10.6918 13.7594 9.37267C13.8602 8.57814 13.9492 7.48986 13.95 6.00118C13.9508 4.51251 13.8602 3.42189 13.7594 2.62853Z" fill="url(#paint0_linear_8517_1142)"/>
<defs>
<linearGradient id="paint0_linear_8517_1142" x1="4.25005" y1="-2.47146" x2="16.7684" y2="20.921" gradientUnits="userSpaceOnUse">
<stop stop-color="#2F53FF"/>
<stop offset="1" stop-color="#2FC1FF"/>
</linearGradient>
</defs>
</svg>
