<svg width="24" height="24" viewBox="0 0 24 24" fill="none" xmlns="http://www.w3.org/2000/svg">
<path d="M15 22.75C14.73 22.75 14.48 22.6 14.35 22.37C14.22 22.13 14.22 21.85 14.36 21.61L15.41 19.86C15.62 19.51 16.08 19.39 16.44 19.6C16.8 19.81 16.91 20.27 16.7 20.63L16.43 21.08C19.19 20.43 21.26 17.95 21.26 14.99C21.26 14.58 21.6 14.24 22.01 14.24C22.42 14.24 22.76 14.58 22.76 14.99C22.75 19.27 19.27 22.75 15 22.75Z" fill="#292D32"/>
<path d="M2 9.75C1.59 9.75 1.25 9.41 1.25 9C1.25 4.73 4.73 1.25 9 1.25C9.27 1.25 9.52 1.4 9.65 1.63C9.78 1.87 9.78 2.15 9.64 2.39L8.59 4.14C8.38 4.49 7.92 4.61 7.56 4.39C7.21 4.18 7.09 3.72 7.31 3.36L7.58 2.91C4.81 3.56 2.75 6.04 2.75 9C2.75 9.41 2.41 9.75 2 9.75Z" fill="#292D32"/>
<path d="M16.4 8.20996L12.64 6.17996C12.24 5.96996 11.77 5.96996 11.37 6.17996L7.59997 8.20996C7.32997 8.35996 7.15997 8.64996 7.15997 8.96996C7.15997 9.29996 7.32997 9.58996 7.59997 9.73996L11.36 11.77C11.56 11.88 11.78 11.93 12 11.93C12.22 11.93 12.44 11.88 12.64 11.77L16.4 9.73996C16.67 9.58996 16.84 9.29996 16.84 8.96996C16.84 8.64996 16.67 8.35996 16.4 8.20996Z" fill="#292D32"/>
<path d="M10.74 12.4701L7.24 10.7201C6.97 10.5901 6.66 10.6001 6.4 10.7601C6.15 10.9201 6 11.1901 6 11.4901V14.8001C6 15.3701 6.32 15.8901 6.83 16.1401L10.33 17.8901C10.45 17.9501 10.58 17.9801 10.72 17.9801C10.88 17.9801 11.03 17.9401 11.17 17.8501C11.43 17.6901 11.58 17.4201 11.58 17.1201V13.8101C11.57 13.2401 11.26 12.7301 10.74 12.4701Z" fill="#292D32"/>
<path d="M17.59 10.7601C17.33 10.6001 17.02 10.5901 16.75 10.7201L13.25 12.4701C12.74 12.7301 12.42 13.2401 12.42 13.8101V17.1201C12.42 17.4201 12.57 17.6901 12.83 17.8501C12.97 17.9401 13.12 17.9801 13.28 17.9801C13.41 17.9801 13.54 17.9501 13.67 17.8901L17.17 16.1401C17.68 15.8801 18 15.3701 18 14.8001V11.4901C18 11.1901 17.85 10.9201 17.59 10.7601Z" fill="#292D32"/>
</svg>
