<svg enable-background="new 0 0 74.5 65.188" viewBox="0 0 74.5 65.188" xmlns="http://www.w3.org/2000/svg"><g fill="#fff"><path d="m46.959 36.802c-.434 0-.682.081-1.069.223-.563-1.278-1.757-2.176-3.236-2.176-.777 0-1.455.25-2.047.67-.661-.91-1.622-1.507-2.826-1.507-.799 0-2.039 1.014-2.039 1.457l-.496-8.583c0-1.995-1.383-3.289-3.378-3.289s-3.119 1.612-3.119 3.607l.667 16.974-1.345-1.616c-1.253-1.552-3.655-2.297-5.207-1.043-1.552 1.253-.85 4.048.403 5.601l7.036 10.102c.448.555 2.02 2.373 5.832 2.373h5.975c8.64 0 8.14-10.411 8.14-10.411v-5.591-3.162c0-1.997-1.296-3.629-3.291-3.629z"/><path d="m66.75 34.594-8.5-8.037v4.037h-8v9h8v3.037z" opacity=".6"/><path d="m6.75 34.594 8.5 8.037v-3.037h9v-9h-9v-4.037z" opacity=".6"/></g></svg>