<svg width="13" height="15" viewBox="0 0 13 15" fill="none" xmlns="http://www.w3.org/2000/svg">
<path d="M7.93945 15H2.34375C1.05138 15 0 13.9486 0 12.6562V4.7168C0 3.42442 1.05138 2.37305 2.34375 2.37305H7.93945C9.23183 2.37305 10.2832 3.42442 10.2832 4.7168V12.6562C10.2832 13.9486 9.23183 15 7.93945 15ZM2.34375 3.54492C1.69761 3.54492 1.17188 4.07065 1.17188 4.7168V12.6562C1.17188 13.3024 1.69761 13.8281 2.34375 13.8281H7.93945C8.5856 13.8281 9.11133 13.3024 9.11133 12.6562V4.7168C9.11133 4.07065 8.5856 3.54492 7.93945 3.54492H2.34375ZM12.627 11.1914V2.34375C12.627 1.05138 11.5756 0 10.2832 0H3.7793C3.45565 0 3.19336 0.262295 3.19336 0.585938C3.19336 0.90958 3.45565 1.17188 3.7793 1.17188H10.2832C10.9293 1.17188 11.4551 1.69761 11.4551 2.34375V11.1914C11.4551 11.515 11.7174 11.7773 12.041 11.7773C12.3647 11.7773 12.627 11.515 12.627 11.1914Z" fill="url(#paint0_linear_8640_4946)"/>
<defs>
<linearGradient id="paint0_linear_8640_4946" x1="2.68323" y1="-3.08036" x2="21.4426" y2="14.6413" gradientUnits="userSpaceOnUse">
<stop stop-color="#2F53FF"/>
<stop offset="1" stop-color="#2FC1FF"/>
</linearGradient>
</defs>
</svg>
