<svg width="60" height="60" viewBox="0 0 60 60" fill="none" xmlns="http://www.w3.org/2000/svg">
<g filter="url(#filter0_d_8640_4931)">
<g clip-path="url(#clip0_8640_4931)">
<rect x="7" y="3" width="46" height="46" rx="4" fill="#010304"/>
<circle opacity="0.25" cx="43" cy="13" r="67" fill="url(#paint0_radial_8640_4931)"/>
<path fill-rule="evenodd" clip-rule="evenodd" d="M32.697 32.25C32.3759 32.5919 32.0443 32.9238 31.7025 33.245L31.6958 33.2513C31.2342 33.6779 30.6287 33.9149 30 33.915C29.3714 33.9151 28.7659 33.6782 28.3041 33.2517L28.297 33.2454C27.9554 32.9238 27.6238 32.5919 27.3025 32.25H25.0983C25.0209 32.2499 24.945 32.2715 24.8792 32.3122C24.8134 32.3529 24.7603 32.4112 24.7258 32.4804L23.8925 34.1471C23.8607 34.2106 23.8457 34.2812 23.8489 34.3521C23.8521 34.423 23.8734 34.4919 23.9107 34.5523C23.948 34.6127 24.0002 34.6626 24.0622 34.6972C24.1241 34.7318 24.194 34.75 24.265 34.75H35.735C35.806 34.75 35.8758 34.7318 35.9378 34.6972C35.9998 34.6626 36.0519 34.6127 36.0892 34.5523C36.1265 34.4919 36.1478 34.423 36.151 34.3521C36.1542 34.2812 36.1392 34.2106 36.1075 34.1471L35.2741 32.4804C35.2396 32.4112 35.1865 32.3529 35.1207 32.3122C35.0549 32.2715 34.979 32.2499 34.9016 32.25H32.697Z" fill="url(#paint1_linear_8640_4931)"/>
<path fill-rule="evenodd" clip-rule="evenodd" d="M30 17.25C33.4496 17.25 36.25 20.0504 36.25 23.5C36.25 27.3333 32.8025 31.0713 31.1325 32.6371L31.1304 32.6392C30.8227 32.9237 30.4191 33.0817 30.0001 33.0818C29.581 33.0819 29.1774 32.924 28.8696 32.6396L28.8675 32.6375C27.1975 31.0713 23.75 27.3333 23.75 23.5C23.75 20.0504 26.5504 17.25 30 17.25ZM30 21.4167C28.85 21.4167 27.9167 22.35 27.9167 23.5C27.9167 24.65 28.85 25.5833 30 25.5833C31.15 25.5833 32.0833 24.65 32.0833 23.5C32.0833 22.35 31.15 21.4167 30 21.4167Z" fill="url(#paint2_linear_8640_4931)"/>
</g>
<rect x="6.55" y="2.55" width="46.9" height="46.9" rx="4.45" stroke="url(#paint3_linear_8640_4931)" stroke-width="0.9"/>
</g>
<defs>
<filter id="filter0_d_8640_4931" x="0.0999756" y="0.100098" width="59.8" height="59.7998" filterUnits="userSpaceOnUse" color-interpolation-filters="sRGB">
<feFlood flood-opacity="0" result="BackgroundImageFix"/>
<feColorMatrix in="SourceAlpha" type="matrix" values="0 0 0 0 0 0 0 0 0 0 0 0 0 0 0 0 0 0 127 0" result="hardAlpha"/>
<feOffset dy="4"/>
<feGaussianBlur stdDeviation="3"/>
<feComposite in2="hardAlpha" operator="out"/>
<feColorMatrix type="matrix" values="0 0 0 0 0 0 0 0 0 0 0 0 0 0 0 0 0 0 0.25 0"/>
<feBlend mode="normal" in2="BackgroundImageFix" result="effect1_dropShadow_8640_4931"/>
<feBlend mode="normal" in="SourceGraphic" in2="effect1_dropShadow_8640_4931" result="shape"/>
</filter>
<radialGradient id="paint0_radial_8640_4931" cx="0" cy="0" r="1" gradientUnits="userSpaceOnUse" gradientTransform="translate(43 13) rotate(94.4696) scale(67.2044)">
<stop stop-color="#2B8CFF"/>
<stop offset="1" stop-opacity="0"/>
</radialGradient>
<linearGradient id="paint1_linear_8640_4931" x1="26.4629" y1="31.7366" x2="27.561" y2="37.801" gradientUnits="userSpaceOnUse">
<stop stop-color="#2F53FF"/>
<stop offset="1" stop-color="#2FC1FF"/>
</linearGradient>
<linearGradient id="paint2_linear_8640_4931" x1="26.4063" y1="13.9988" x2="46.0937" y2="31.4429" gradientUnits="userSpaceOnUse">
<stop stop-color="#2F53FF"/>
<stop offset="1" stop-color="#2FC1FF"/>
</linearGradient>
<linearGradient id="paint3_linear_8640_4931" x1="16.775" y1="-6.44643" x2="74.016" y2="57.7907" gradientUnits="userSpaceOnUse">
<stop stop-color="#2F53FF"/>
<stop offset="1" stop-color="#2FC1FF"/>
</linearGradient>
<clipPath id="clip0_8640_4931">
<rect x="7" y="3" width="46" height="46" rx="4" fill="white"/>
</clipPath>
</defs>
</svg>
