<svg width="60" height="60" viewBox="0 0 60 60" fill="none" xmlns="http://www.w3.org/2000/svg">
<rect width="60" height="60" fill="#1E1E1E"/>
<g filter="url(#filter0_d_8050_44776)">
<g clip-path="url(#clip0_8050_44776)">
<rect x="7" y="3" width="46" height="46" rx="4" fill="#010304"/>
<circle opacity="0.25" cx="43" cy="13" r="67" fill="url(#paint0_radial_8050_44776)"/>
<path d="M23.0799 14.9547C22.0496 15.2347 21.1989 16.0854 20.8607 17.1738C20.7709 17.475 20.7656 17.8924 20.7656 26.1034V34.716L20.9083 35.144C21.2412 36.1267 21.9598 36.8665 22.9108 37.2152L23.3018 37.3579L29.6318 37.3737C36.7173 37.3896 36.3052 37.4054 37.0766 37.0038C37.9907 36.5336 38.6036 35.6512 38.7569 34.5997C38.8308 34.0978 38.8256 22.8803 38.7516 22.4365C38.6829 21.9926 38.535 21.5858 38.3236 21.2265C38.2126 21.0416 37.2351 20.0007 35.5972 18.3204C34.1917 16.878 32.9553 15.631 32.8496 15.5464C32.5907 15.3351 31.8774 15.0075 31.5287 14.9335C31.3385 14.8965 29.9911 14.8754 27.3017 14.8807C24.0786 14.8807 23.3018 14.8965 23.0799 14.9547ZM30.2553 24.1379C30.5565 24.3386 30.6727 24.5658 30.6727 24.941C30.6727 25.3214 30.5459 25.5539 30.25 25.7283C30.0756 25.8339 29.97 25.8392 28.295 25.8551C26.3242 25.8762 26.0494 25.8551 25.8063 25.6913C25.4999 25.4799 25.4153 25.3161 25.4153 24.9199C25.4153 24.6134 25.4365 24.5341 25.558 24.3756C25.8328 24.0163 25.8222 24.0163 28.0625 24.0163C30.0703 24.0163 30.0756 24.0163 30.2553 24.1379ZM33.5259 28.666C33.7426 28.7242 34.0226 28.9884 34.1019 29.2103C34.2604 29.6277 34.0702 30.1349 33.6844 30.341L33.4572 30.4625H29.7745H26.0917L25.8645 30.341C25.1934 29.987 25.2515 28.8774 25.949 28.666C26.1656 28.6026 33.2934 28.6026 33.5259 28.666Z" fill="url(#paint1_linear_8050_44776)"/>
</g>
<rect x="6.55" y="2.55" width="46.9" height="46.9" rx="4.45" stroke="url(#paint2_linear_8050_44776)" stroke-width="0.9"/>
</g>
<defs>
<filter id="filter0_d_8050_44776" x="0.100098" y="0.100098" width="59.7998" height="59.7998" filterUnits="userSpaceOnUse" color-interpolation-filters="sRGB">
<feFlood flood-opacity="0" result="BackgroundImageFix"/>
<feColorMatrix in="SourceAlpha" type="matrix" values="0 0 0 0 0 0 0 0 0 0 0 0 0 0 0 0 0 0 127 0" result="hardAlpha"/>
<feOffset dy="4"/>
<feGaussianBlur stdDeviation="3"/>
<feComposite in2="hardAlpha" operator="out"/>
<feColorMatrix type="matrix" values="0 0 0 0 0 0 0 0 0 0 0 0 0 0 0 0 0 0 0.25 0"/>
<feBlend mode="normal" in2="BackgroundImageFix" result="effect1_dropShadow_8050_44776"/>
<feBlend mode="normal" in="SourceGraphic" in2="effect1_dropShadow_8050_44776" result="shape"/>
</filter>
<radialGradient id="paint0_radial_8050_44776" cx="0" cy="0" r="1" gradientUnits="userSpaceOnUse" gradientTransform="translate(43 13) rotate(94.4696) scale(67.2044)">
<stop stop-color="#2B8CFF"/>
<stop offset="1" stop-opacity="0"/>
</radialGradient>
<linearGradient id="paint1_linear_8050_44776" x1="29.7877" y1="37.3799" x2="29.7877" y2="14.8799" gradientUnits="userSpaceOnUse">
<stop stop-color="#2F62FF"/>
<stop offset="1" stop-color="#2F99FF"/>
</linearGradient>
<linearGradient id="paint2_linear_8050_44776" x1="16.775" y1="-6.44643" x2="74.016" y2="57.7907" gradientUnits="userSpaceOnUse">
<stop stop-color="#2F53FF"/>
<stop offset="1" stop-color="#2FC1FF"/>
</linearGradient>
<clipPath id="clip0_8050_44776">
<rect x="7" y="3" width="46" height="46" rx="4" fill="white"/>
</clipPath>
</defs>
</svg>
