<svg width="61" height="61" viewBox="0 0 61 61" fill="none" xmlns="http://www.w3.org/2000/svg">
<g filter="url(#filter0_d_8640_5307)">
<g clip-path="url(#clip0_8640_5307)">
<rect x="7.23438" y="3.12012" width="46" height="46" rx="4" fill="#010304"/>
<circle opacity="0.25" cx="43.2344" cy="13.1201" r="67" fill="url(#paint0_radial_8640_5307)"/>
<g clip-path="url(#clip1_8640_5307)">
<path d="M30.2344 16.1201C24.7117 16.1201 20.2344 20.5975 20.2344 26.1201C20.2344 31.6428 24.7117 36.1201 30.2344 36.1201C35.757 36.1201 40.2344 31.6428 40.2344 26.1201C40.2344 20.5975 35.757 16.1201 30.2344 16.1201ZM36.3387 32.2244C35.5378 33.0297 34.586 33.669 33.5377 34.1058C32.4893 34.5426 31.3651 34.7682 30.2294 34.7698C29.0937 34.7714 27.9689 34.5489 26.9194 34.115C25.8698 33.6811 24.9162 33.0444 24.1132 32.2413C23.3101 31.4383 22.6734 30.4847 22.2395 29.4351C21.8056 28.3856 21.5831 27.2608 21.5847 26.1251C21.5862 24.9894 21.8119 23.8652 22.2487 22.8168C22.6855 21.7685 23.3248 20.8166 24.1301 20.0158C24.9309 19.2105 25.8828 18.5712 26.9311 18.1344C27.9794 17.6976 29.1036 17.472 30.2393 17.4704C31.375 17.4688 32.4998 17.6914 33.5494 18.1253C34.5989 18.5591 35.5525 19.1958 36.3556 19.9989C37.1586 20.802 37.7954 21.7556 38.2292 22.8051C38.6631 23.8546 38.8856 24.9795 38.8841 26.1152C38.8825 27.2509 38.6569 28.3751 38.2201 29.4234C37.7833 30.4717 37.1439 31.4236 36.3387 32.2244Z" fill="url(#paint1_linear_8640_5307)"/>
<path d="M31.8137 31.5107C31.7712 31.5103 31.7291 31.5026 31.6891 31.4881C30.7661 31.2537 29.995 30.7822 29.3973 30.09C28.7911 29.3869 28.484 28.5275 28.484 27.5287C28.4804 27.3059 28.5247 27.085 28.6138 26.8808C28.703 26.6766 28.835 26.4939 29.0008 26.3451C29.3331 26.0408 29.7673 25.8721 30.2178 25.8721C30.6684 25.8721 31.1026 26.0408 31.4348 26.3451C31.601 26.4938 31.7332 26.6764 31.8227 26.8806C31.9121 27.0848 31.9566 27.3058 31.9532 27.5287C31.9514 27.6546 31.9779 27.7794 32.0309 27.8936C32.0838 28.0079 32.1618 28.1088 32.259 28.1889C32.4606 28.3727 32.7245 28.473 32.9973 28.4693C33.2607 28.472 33.5147 28.372 33.7055 28.1904C33.8005 28.1082 33.8763 28.0061 33.9274 27.8914C33.9785 27.7766 34.0037 27.652 34.0012 27.5264C34.0012 26.5229 33.6383 25.7061 32.8918 25.0287C32.1454 24.3514 31.2512 24.0131 30.2176 24.0131C29.184 24.0131 28.286 24.3549 27.5438 25.0287C26.8016 25.7025 26.4344 26.5229 26.4344 27.5264C26.4398 27.7863 26.4628 28.0457 26.5032 28.3025C26.5628 28.6725 26.6605 29.0354 26.7946 29.3854C26.8567 29.5443 26.7997 29.6506 26.7602 29.7002C26.7276 29.7406 26.6888 29.7757 26.6454 29.8041L26.634 29.8119L26.6215 29.8182C26.5683 29.8444 26.5097 29.8578 26.4504 29.8572C26.4214 29.8572 26.3924 29.854 26.3641 29.8475C26.3093 29.8354 26.2583 29.8096 26.2161 29.7726C26.1738 29.7356 26.1416 29.6885 26.1223 29.6357L26.12 29.6307V29.6252C26.0046 29.2881 25.9132 28.9432 25.8465 28.5932C25.7797 28.241 25.746 27.8833 25.7457 27.5248C25.7457 26.3529 26.1954 25.3412 27.0825 24.5131C27.9696 23.685 29.0204 23.2709 30.2188 23.2709C31.4426 23.2709 32.5083 23.6822 33.3868 24.4928C34.2653 25.3033 34.718 26.3287 34.718 27.5248C34.721 27.7446 34.6773 27.9625 34.5898 28.1641C34.5022 28.3657 34.3728 28.5465 34.2102 28.6943C33.8846 29.0054 33.4495 29.1756 32.9993 29.1682C32.5421 29.176 32.0996 29.0069 31.7641 28.6963C31.4161 28.3783 31.2395 27.9842 31.2395 27.5244C31.2429 27.397 31.2182 27.2703 31.167 27.1535C31.1159 27.0367 31.0397 26.9326 30.9438 26.8486C30.7484 26.6652 30.4891 26.5654 30.2211 26.5705C29.9509 26.5661 29.6894 26.6662 29.4911 26.8498C29.3939 26.9328 29.3164 27.0364 29.2643 27.1531C29.2122 27.2698 29.1868 27.3966 29.1899 27.5244C29.1899 28.3592 29.4446 29.0631 29.9465 29.617C30.459 30.1822 31.1075 30.5846 31.8739 30.8131L31.8809 30.8154C31.9283 30.8281 31.9727 30.8502 32.0114 30.8804C32.0502 30.9106 32.0824 30.9483 32.1063 30.9912C32.1418 31.0709 32.1492 31.1603 32.1273 31.2447C32.1053 31.3292 32.0554 31.4037 31.9856 31.4561C31.9352 31.4914 31.8753 31.5105 31.8137 31.5107ZM29.009 31.4053C28.9609 31.4044 28.9136 31.3929 28.8705 31.3716C28.8274 31.3502 28.7896 31.3196 28.7598 31.2818C28.2493 30.7525 27.8446 30.1881 27.5571 29.6021C27.2633 29.0053 27.1141 28.3072 27.1141 27.5271C27.1141 26.6998 27.4227 25.9932 28.0313 25.4264C28.6399 24.8596 29.3711 24.5783 30.2188 24.5783C31.0665 24.5783 31.8047 24.8635 32.4172 25.4252C33.0297 25.9869 33.3485 26.699 33.3485 27.5271C33.3511 27.574 33.3438 27.6209 33.327 27.6647C33.3103 27.7085 33.2845 27.7483 33.2513 27.7815C33.2181 27.8147 33.1783 27.8405 33.1345 27.8572C33.0906 27.874 33.0438 27.8813 32.9969 27.8787C32.9078 27.8807 32.8209 27.8511 32.7516 27.7951C32.7135 27.762 32.6831 27.7208 32.6629 27.6745C32.6426 27.6282 32.6329 27.578 32.6344 27.5275C32.6344 26.8893 32.4024 26.3682 31.9254 25.9346C31.4422 25.4951 30.8844 25.2814 30.2204 25.2814C29.5563 25.2814 29.0016 25.4951 28.5274 25.9342C28.0532 26.3732 27.8297 26.8896 27.8297 27.5287C27.8297 28.2232 27.9504 28.8205 28.1879 29.3041C28.4305 29.7975 28.7973 30.2998 29.2782 30.7971C29.3174 30.8324 29.3475 30.8766 29.366 30.9261C29.3845 30.9755 29.3908 31.0287 29.3844 31.0811C29.3723 31.1607 29.3344 31.2342 29.2766 31.2904C29.2282 31.3365 29.1696 31.3705 29.1055 31.3896C29.0744 31.4001 29.0418 31.4053 29.009 31.4053ZM32.8797 30.4123C32.068 30.4123 31.3563 30.1389 30.7598 29.599C30.1586 29.0521 29.8536 28.3568 29.8536 27.5287C29.8515 27.4395 29.8811 27.3524 29.9372 27.283C29.971 27.2456 30.0123 27.2158 30.0584 27.1953C30.1045 27.1749 30.1543 27.1643 30.2047 27.1643C30.2552 27.1643 30.305 27.1749 30.3511 27.1953C30.3972 27.2158 30.4385 27.2456 30.4723 27.283C30.5287 27.3523 30.5585 27.4394 30.5563 27.5287C30.5563 28.1654 30.7829 28.6752 31.2497 29.0869C31.7247 29.5061 32.2579 29.71 32.8797 29.71C32.9415 29.71 33.0172 29.7057 33.1051 29.6979C33.193 29.69 33.2922 29.6775 33.3973 29.6615C33.4213 29.6569 33.4456 29.6546 33.47 29.6545C33.5468 29.6536 33.6214 29.68 33.6805 29.7291C33.7361 29.7737 33.7778 29.8331 33.8008 29.9006L33.8036 29.9084L33.8055 29.917C33.8275 29.9982 33.8194 30.0847 33.7825 30.1604C33.7596 30.2041 33.7269 30.2421 33.687 30.2713C33.6471 30.3005 33.6011 30.3201 33.5524 30.3287C33.4053 30.3719 33.2538 30.3981 33.1008 30.4068C32.9411 30.4119 32.8981 30.4123 32.8797 30.4123ZM25.6579 25.0154C25.6005 25.0155 25.5439 25.0021 25.4926 24.9764C25.4397 24.9507 25.3952 24.9105 25.3643 24.8605C25.3334 24.8105 25.3173 24.7527 25.318 24.6939C25.3179 24.6212 25.3349 24.5495 25.3676 24.4846L25.3754 24.4686L25.386 24.4541C25.9312 23.6936 26.6557 23.0796 27.4954 22.6666C28.3413 22.2482 29.2731 22.0323 30.2168 22.0361C31.1605 22.0325 32.0927 22.2433 32.943 22.6525C33.7895 23.0583 34.5217 23.6681 35.0739 24.4271L35.0797 24.4354L35.0848 24.4439C35.1338 24.5116 35.1562 24.5949 35.1478 24.678C35.1394 24.7611 35.1007 24.8383 35.0391 24.8947C35.003 24.9313 34.9592 24.9595 34.911 24.9774C34.8628 24.9952 34.8112 25.0023 34.76 24.998C34.7087 24.9938 34.659 24.9784 34.6144 24.9528C34.5697 24.9273 34.5312 24.8922 34.5016 24.8502L34.4981 24.8459L34.495 24.8412C34.0162 24.1733 33.3762 23.6375 32.6344 23.2838C31.8804 22.921 31.054 22.734 30.2172 22.7369C29.3868 22.7327 28.5668 22.9216 27.8219 23.2889C27.0868 23.6506 26.4495 24.1838 25.9637 24.8436L25.9614 24.8467L25.9586 24.8502C25.9067 24.9218 25.8334 24.9752 25.7493 25.0025C25.7195 25.0109 25.6888 25.0153 25.6579 25.0154ZM27.1309 22.2092C27.0789 22.2098 27.0278 22.1963 26.9829 22.1701C26.9368 22.1413 26.897 22.1036 26.8657 22.0592C26.8161 21.9986 26.79 21.9222 26.7922 21.8439C26.7915 21.7922 26.8037 21.741 26.8278 21.6952C26.8519 21.6493 26.8871 21.6102 26.9301 21.5814L26.9383 21.576L26.9469 21.5713C27.4508 21.2972 27.9866 21.0865 28.5422 20.9439C29.0895 20.8028 29.6524 20.7307 30.2176 20.7295C30.7919 20.7293 31.3639 20.801 31.9204 20.9432C32.4679 21.0832 32.9986 21.2827 33.5028 21.5381C33.5552 21.5586 33.6012 21.5927 33.636 21.637C33.6708 21.6812 33.6932 21.7339 33.7008 21.7896C33.7124 21.8741 33.6928 21.9599 33.6457 22.0311C33.6084 22.0865 33.5585 22.1324 33.5 22.165C33.4513 22.1931 33.3961 22.2076 33.3399 22.2072C33.2911 22.2069 33.2428 22.1972 33.1977 22.1787L33.1899 22.1756L33.1821 22.1717C32.7203 21.9454 32.2367 21.7666 31.7387 21.6381C31.2418 21.5099 30.7308 21.4451 30.2176 21.4451C29.7087 21.4452 29.2017 21.5066 28.7075 21.6279C28.2178 21.7489 27.7454 21.9311 27.3012 22.1701L27.2903 22.176L27.2786 22.1807C27.2316 22.1995 27.1815 22.2092 27.1309 22.2092Z" fill="url(#paint2_linear_8640_5307)"/>
</g>
</g>
<rect x="6.78438" y="2.67012" width="46.9" height="46.9" rx="4.45" stroke="url(#paint3_linear_8640_5307)" stroke-width="0.9"/>
</g>
<defs>
<filter id="filter0_d_8640_5307" x="0.334351" y="0.220215" width="59.8" height="59.7998" filterUnits="userSpaceOnUse" color-interpolation-filters="sRGB">
<feFlood flood-opacity="0" result="BackgroundImageFix"/>
<feColorMatrix in="SourceAlpha" type="matrix" values="0 0 0 0 0 0 0 0 0 0 0 0 0 0 0 0 0 0 127 0" result="hardAlpha"/>
<feOffset dy="4"/>
<feGaussianBlur stdDeviation="3"/>
<feComposite in2="hardAlpha" operator="out"/>
<feColorMatrix type="matrix" values="0 0 0 0 0 0 0 0 0 0 0 0 0 0 0 0 0 0 0.25 0"/>
<feBlend mode="normal" in2="BackgroundImageFix" result="effect1_dropShadow_8640_5307"/>
<feBlend mode="normal" in="SourceGraphic" in2="effect1_dropShadow_8640_5307" result="shape"/>
</filter>
<radialGradient id="paint0_radial_8640_5307" cx="0" cy="0" r="1" gradientUnits="userSpaceOnUse" gradientTransform="translate(43.2344 13.1201) rotate(94.4696) scale(67.2044)">
<stop stop-color="#2B8CFF"/>
<stop offset="1" stop-opacity="0"/>
</radialGradient>
<linearGradient id="paint1_linear_8640_5307" x1="24.4844" y1="12.013" x2="49.3718" y2="39.9422" gradientUnits="userSpaceOnUse">
<stop stop-color="#2F53FF"/>
<stop offset="1" stop-color="#2FC1FF"/>
</linearGradient>
<linearGradient id="paint2_linear_8640_5307" x1="27.4072" y1="18.5155" x2="40.9087" y2="32.3325" gradientUnits="userSpaceOnUse">
<stop stop-color="#2F53FF"/>
<stop offset="1" stop-color="#2FC1FF"/>
</linearGradient>
<linearGradient id="paint3_linear_8640_5307" x1="17.0094" y1="-6.32631" x2="74.2504" y2="57.9108" gradientUnits="userSpaceOnUse">
<stop stop-color="#2F53FF"/>
<stop offset="1" stop-color="#2FC1FF"/>
</linearGradient>
<clipPath id="clip0_8640_5307">
<rect x="7.23438" y="3.12012" width="46" height="46" rx="4" fill="white"/>
</clipPath>
<clipPath id="clip1_8640_5307">
<rect width="20" height="20" fill="white" transform="translate(20.2344 16.1201)"/>
</clipPath>
</defs>
</svg>
