<svg width="60" height="60" viewBox="0 0 60 60" fill="none" xmlns="http://www.w3.org/2000/svg">
<g filter="url(#filter0_d_8640_5326)">
<g clip-path="url(#clip0_8640_5326)">
<rect x="7" y="3" width="46" height="46" rx="4" fill="#010304"/>
<circle opacity="0.25" cx="43" cy="13" r="67" fill="url(#paint0_radial_8640_5326)"/>
<path d="M30 16C24.4773 16 20 20.4773 20 26C20 31.5227 24.4773 36 30 36C35.5227 36 40 31.5227 40 26C40 20.4773 35.5227 16 30 16ZM36.1043 32.1043C35.3035 32.9096 34.3516 33.5489 33.3033 33.9857C32.255 34.4225 31.1307 34.6481 29.9951 34.6497C28.8594 34.6513 27.7345 34.4287 26.685 33.9949C25.6355 33.561 24.6818 32.9243 23.8788 32.1212C23.0757 31.3182 22.439 30.3646 22.0051 29.315C21.5713 28.2655 21.3487 27.1406 21.3503 26.0049C21.3519 24.8693 21.5775 23.745 22.0143 22.6967C22.4511 21.6484 23.0904 20.6965 23.8957 19.8957C24.6965 19.0904 25.6484 18.4511 26.6967 18.0143C27.745 17.5775 28.8693 17.3519 30.0049 17.3503C31.1406 17.3487 32.2655 17.5713 33.315 18.0051C34.3646 18.439 35.3182 19.0757 36.1212 19.8788C36.9243 20.6818 37.561 21.6355 37.9949 22.685C38.4287 23.7345 38.6513 24.8594 38.6497 25.9951C38.6481 27.1307 38.4225 28.255 37.9857 29.3033C37.5489 30.3516 36.9096 31.3035 36.1043 32.1043Z" fill="url(#paint1_linear_8640_5326)"/>
<path d="M31.5792 31.3906C31.5367 31.3902 31.4946 31.3825 31.4546 31.368C30.5316 31.1336 29.7605 30.6621 29.1628 29.9699C28.5566 29.2668 28.2495 28.4074 28.2495 27.4086C28.2459 27.1858 28.2902 26.9648 28.3793 26.7606C28.4685 26.5564 28.6005 26.3738 28.7663 26.225C29.0986 25.9207 29.5328 25.7519 29.9833 25.7519C30.4339 25.7519 30.8681 25.9207 31.2003 26.225C31.3665 26.3736 31.4987 26.5562 31.5882 26.7604C31.6776 26.9646 31.7221 27.1857 31.7187 27.4086C31.7169 27.5345 31.7434 27.6593 31.7964 27.7735C31.8493 27.8878 31.9273 27.9887 32.0245 28.0688C32.2261 28.2526 32.49 28.3529 32.7628 28.3492C33.0262 28.3519 33.2802 28.2519 33.471 28.0703C33.566 27.9881 33.6418 27.886 33.6929 27.7712C33.744 27.6565 33.7692 27.5319 33.7667 27.4063C33.7667 26.4027 33.4038 25.5859 32.6573 24.9086C31.9109 24.2313 31.0167 23.893 29.9831 23.893C28.9495 23.893 28.0515 24.2348 27.3093 24.9086C26.5671 25.5824 26.1999 26.4027 26.1999 27.4063C26.2054 27.6662 26.2283 27.9255 26.2687 28.1824C26.3283 28.5524 26.426 28.9153 26.5601 29.2652C26.6222 29.4242 26.5652 29.5305 26.5257 29.5801C26.4931 29.6205 26.4543 29.6555 26.4109 29.684L26.3995 29.6918L26.387 29.698C26.3338 29.7243 26.2752 29.7377 26.2159 29.7371C26.1869 29.7371 26.1579 29.7338 26.1296 29.7273C26.0748 29.7152 26.0238 29.6895 25.9816 29.6525C25.9393 29.6155 25.9071 29.5684 25.8878 29.5156L25.8855 29.5105V29.5051C25.7701 29.1679 25.6787 28.8231 25.612 28.473C25.5452 28.1208 25.5115 27.7632 25.5113 27.4047C25.5113 26.2328 25.9609 25.2211 26.848 24.393C27.7351 23.5648 28.7859 23.1508 29.9843 23.1508C31.2081 23.1508 32.2738 23.5621 33.1523 24.3727C34.0308 25.1832 34.4835 26.2086 34.4835 27.4047C34.4865 27.6245 34.4428 27.8424 34.3553 28.044C34.2677 28.2456 34.1383 28.4264 33.9757 28.5742C33.6501 28.8853 33.215 29.0555 32.7648 29.048C32.3076 29.0559 31.8651 28.8868 31.5296 28.5762C31.1816 28.2582 31.005 27.8641 31.005 27.4043C31.0084 27.2768 30.9837 27.1502 30.9325 27.0334C30.8814 26.9166 30.8052 26.8125 30.7093 26.7285C30.5139 26.5451 30.2546 26.4453 29.9866 26.4504C29.7164 26.446 29.4549 26.5461 29.2566 26.7297C29.1594 26.8127 29.0819 26.9163 29.0298 27.033C28.9777 27.1497 28.9523 27.2765 28.9554 27.4043C28.9554 28.2391 29.2101 28.943 29.712 29.4969C30.2245 30.0621 30.873 30.4645 31.6394 30.693L31.6464 30.6953C31.6938 30.708 31.7382 30.7301 31.777 30.7603C31.8157 30.7905 31.8479 30.8282 31.8718 30.8711C31.9073 30.9508 31.9147 31.0402 31.8928 31.1246C31.8708 31.2091 31.8209 31.2836 31.7511 31.3359C31.7007 31.3713 31.6408 31.3904 31.5792 31.3906ZM28.7745 31.2852C28.7264 31.2843 28.6791 31.2728 28.636 31.2515C28.5929 31.2301 28.5551 31.1995 28.5253 31.1617C28.0148 30.6324 27.6101 30.068 27.3226 29.482C27.0288 28.8852 26.8796 28.1871 26.8796 27.407C26.8796 26.5797 27.1882 25.873 27.7968 25.3063C28.4054 24.7395 29.1366 24.4582 29.9843 24.4582C30.832 24.4582 31.5702 24.7434 32.1827 25.3051C32.7952 25.8668 33.114 26.5789 33.114 27.407C33.1166 27.4539 33.1093 27.5008 33.0925 27.5446C33.0758 27.5884 33.05 27.6282 33.0168 27.6614C32.9836 27.6946 32.9438 27.7204 32.9 27.7371C32.8561 27.7539 32.8093 27.7612 32.7624 27.7586C32.6733 27.7606 32.5864 27.731 32.5171 27.675C32.479 27.6419 32.4486 27.6007 32.4284 27.5544C32.4081 27.5081 32.3984 27.4579 32.3999 27.4074C32.3999 26.7691 32.1679 26.248 31.6909 25.8145C31.2077 25.375 30.6499 25.1613 29.9859 25.1613C29.3218 25.1613 28.7671 25.375 28.2929 25.8141C27.8187 26.2531 27.5952 26.7695 27.5952 27.4086C27.5952 28.1031 27.7159 28.7004 27.9534 29.184C28.196 29.6773 28.5628 30.1797 29.0437 30.677C29.0829 30.7123 29.113 30.7565 29.1315 30.806C29.15 30.8554 29.1563 30.9085 29.1499 30.9609C29.1378 31.0406 29.0999 31.1141 29.0421 31.1703C28.9937 31.2164 28.9351 31.2504 28.871 31.2695C28.8399 31.2799 28.8073 31.2852 28.7745 31.2852ZM32.6452 30.2922C31.8335 30.2922 31.1218 30.0188 30.5253 29.4789C29.9241 28.932 29.6191 28.2367 29.6191 27.4086C29.617 27.3194 29.6466 27.2323 29.7027 27.1629C29.7365 27.1255 29.7778 27.0956 29.8239 27.0752C29.87 27.0548 29.9198 27.0442 29.9702 27.0442C30.0207 27.0442 30.0705 27.0548 30.1166 27.0752C30.1627 27.0956 30.204 27.1255 30.2378 27.1629C30.2942 27.2322 30.324 27.3193 30.3218 27.4086C30.3218 28.0453 30.5484 28.5551 31.0152 28.9668C31.4902 29.3859 32.0234 29.5898 32.6452 29.5898C32.707 29.5898 32.7827 29.5855 32.8706 29.5777C32.9585 29.5699 33.0577 29.5574 33.1628 29.5414C33.1868 29.5368 33.2111 29.5344 33.2355 29.5344C33.3123 29.5335 33.3869 29.5599 33.446 29.609C33.5016 29.6535 33.5433 29.713 33.5663 29.7805L33.5691 29.7883L33.571 29.7969C33.593 29.8781 33.5849 29.9646 33.548 30.0402C33.5251 30.084 33.4924 30.122 33.4525 30.1512C33.4126 30.1804 33.3666 30.2 33.3179 30.2086C33.1708 30.2518 33.0193 30.278 32.8663 30.2867C32.7066 30.2918 32.6636 30.2922 32.6452 30.2922ZM25.4234 24.8953C25.366 24.8953 25.3094 24.882 25.2581 24.8563C25.2052 24.8306 25.1607 24.7904 25.1298 24.7404C25.0989 24.6904 25.0828 24.6326 25.0835 24.5738C25.0834 24.5011 25.1004 24.4294 25.1331 24.3645L25.1409 24.3484L25.1515 24.334C25.6967 23.5735 26.4212 22.9595 27.2609 22.5465C28.1068 22.1281 29.0386 21.9122 29.9823 21.916C30.926 21.9124 31.8582 22.1232 32.7085 22.5324C33.555 22.9381 34.2872 23.548 34.8394 24.307L34.8452 24.3152L34.8503 24.3238C34.8993 24.3915 34.9217 24.4748 34.9133 24.5579C34.9049 24.641 34.8662 24.7181 34.8046 24.7746C34.7685 24.8112 34.7247 24.8394 34.6765 24.8573C34.6283 24.8751 34.5767 24.8822 34.5255 24.8779C34.4742 24.8737 34.4245 24.8582 34.3799 24.8327C34.3352 24.8071 34.2967 24.7721 34.2671 24.7301L34.2636 24.7258L34.2605 24.7211C33.7817 24.0532 33.1417 23.5174 32.3999 23.1637C31.6459 22.8008 30.8195 22.6139 29.9827 22.6168C29.1523 22.6126 28.3323 22.8015 27.5874 23.1688C26.8523 23.5305 26.215 24.0637 25.7292 24.7234L25.7269 24.7266L25.7241 24.7301C25.6722 24.8017 25.5989 24.8551 25.5148 24.8824C25.485 24.8908 25.4543 24.8951 25.4234 24.8953ZM26.8964 22.0891C26.8444 22.0896 26.7933 22.0761 26.7484 22.05C26.7023 22.0212 26.6625 21.9835 26.6312 21.9391C26.5816 21.8785 26.5555 21.8021 26.5577 21.7238C26.557 21.672 26.5692 21.6209 26.5933 21.575C26.6174 21.5292 26.6526 21.4901 26.6956 21.4613L26.7038 21.4559L26.7124 21.4512C27.2163 21.1771 27.7521 20.9664 28.3077 20.8238C28.8551 20.6827 29.4179 20.6106 29.9831 20.6094C30.5574 20.6091 31.1294 20.6809 31.6859 20.823C32.2334 20.9631 32.7641 21.1626 33.2683 21.418C33.3207 21.4385 33.3667 21.4726 33.4015 21.5169C33.4363 21.5611 33.4587 21.6138 33.4663 21.6695C33.4779 21.754 33.4583 21.8398 33.4113 21.9109C33.3739 21.9664 33.324 22.0123 33.2655 22.0449C33.2168 22.0729 33.1616 22.0875 33.1054 22.0871C33.0566 22.0868 33.0083 22.0771 32.9632 22.0586L32.9554 22.0555L32.9476 22.0516C32.4858 21.8253 32.0022 21.6465 31.5042 21.518C31.0073 21.3898 30.4963 21.325 29.9831 21.325C29.4742 21.3251 28.9672 21.3865 28.473 21.5078C27.9833 21.6288 27.5109 21.811 27.0667 22.05L27.0558 22.0559L27.0441 22.0605C26.9971 22.0794 26.947 22.0891 26.8964 22.0891Z" fill="url(#paint2_linear_8640_5326)"/>
<rect x="35.5142" y="17.4858" width="5.79998" height="4.14284" fill="white"/>
<path d="M41.7919 16.2612L38.1669 15.028C38.0588 14.9907 37.9414 14.9907 37.8334 15.028L34.2084 16.2612C34.1059 16.2959 34.0169 16.3619 33.9539 16.4498C33.8909 16.5378 33.857 16.6432 33.8569 16.7514V19.5257C33.8569 22.9118 37.6366 24.5579 37.7975 24.6263C37.8616 24.6529 37.9304 24.6666 37.9998 24.6665C38.0693 24.6664 38.138 24.6524 38.2021 24.6256C38.363 24.5572 42.1426 22.9118 42.1426 19.5257V16.7514C42.1426 16.6433 42.1088 16.5379 42.0459 16.45C41.983 16.3621 41.8942 16.296 41.7919 16.2612ZM40.3129 18.5908L38.2414 21.3527C38.197 21.4121 38.1402 21.4613 38.075 21.4968C38.0099 21.5323 37.9378 21.5533 37.8638 21.5585C37.8513 21.5599 37.8396 21.5599 37.8272 21.5599C37.6899 21.5597 37.5582 21.5051 37.4612 21.408L36.0803 20.027C36.0322 19.9789 35.994 19.9218 35.968 19.8589C35.9419 19.7961 35.9285 19.7287 35.9285 19.6607C35.9285 19.5927 35.9419 19.5253 35.968 19.4625C35.994 19.3996 36.0322 19.3425 36.0803 19.2944C36.1284 19.2463 36.1855 19.2082 36.2483 19.1821C36.3112 19.1561 36.3785 19.1427 36.4466 19.1427C36.5146 19.1427 36.5819 19.1561 36.6448 19.1821C36.7076 19.2082 36.7647 19.2463 36.8129 19.2944L37.7719 20.2535L39.4843 17.9694C39.5251 17.915 39.5762 17.8692 39.6347 17.8345C39.6933 17.7999 39.758 17.7771 39.8253 17.7675C39.8927 17.7578 39.9612 17.7616 40.0271 17.7785C40.093 17.7953 40.1549 17.825 40.2093 17.8658C40.2637 17.9066 40.3095 17.9577 40.3442 18.0163C40.3788 18.0748 40.4016 18.1395 40.4112 18.2069C40.4208 18.2742 40.4171 18.3428 40.4002 18.4086C40.3834 18.4745 40.3537 18.5364 40.3129 18.5908Z" fill="#2F8BFF"/>
</g>
<rect x="6.55" y="2.55" width="46.9" height="46.9" rx="4.45" stroke="url(#paint3_linear_8640_5326)" stroke-width="0.9"/>
</g>
<defs>
<filter id="filter0_d_8640_5326" x="0.100098" y="0.100098" width="59.7998" height="59.7998" filterUnits="userSpaceOnUse" color-interpolation-filters="sRGB">
<feFlood flood-opacity="0" result="BackgroundImageFix"/>
<feColorMatrix in="SourceAlpha" type="matrix" values="0 0 0 0 0 0 0 0 0 0 0 0 0 0 0 0 0 0 127 0" result="hardAlpha"/>
<feOffset dy="4"/>
<feGaussianBlur stdDeviation="3"/>
<feComposite in2="hardAlpha" operator="out"/>
<feColorMatrix type="matrix" values="0 0 0 0 0 0 0 0 0 0 0 0 0 0 0 0 0 0 0.25 0"/>
<feBlend mode="normal" in2="BackgroundImageFix" result="effect1_dropShadow_8640_5326"/>
<feBlend mode="normal" in="SourceGraphic" in2="effect1_dropShadow_8640_5326" result="shape"/>
</filter>
<radialGradient id="paint0_radial_8640_5326" cx="0" cy="0" r="1" gradientUnits="userSpaceOnUse" gradientTransform="translate(43 13) rotate(94.4696) scale(67.2044)">
<stop stop-color="#2B8CFF"/>
<stop offset="1" stop-opacity="0"/>
</radialGradient>
<linearGradient id="paint1_linear_8640_5326" x1="24.25" y1="11.8929" x2="49.1374" y2="39.822" gradientUnits="userSpaceOnUse">
<stop stop-color="#2F53FF"/>
<stop offset="1" stop-color="#2FC1FF"/>
</linearGradient>
<linearGradient id="paint2_linear_8640_5326" x1="27.1727" y1="18.3954" x2="40.6742" y2="32.2124" gradientUnits="userSpaceOnUse">
<stop stop-color="#2F53FF"/>
<stop offset="1" stop-color="#2FC1FF"/>
</linearGradient>
<linearGradient id="paint3_linear_8640_5326" x1="16.775" y1="-6.44643" x2="74.016" y2="57.7907" gradientUnits="userSpaceOnUse">
<stop stop-color="#2F53FF"/>
<stop offset="1" stop-color="#2FC1FF"/>
</linearGradient>
<clipPath id="clip0_8640_5326">
<rect x="7" y="3" width="46" height="46" rx="4" fill="white"/>
</clipPath>
</defs>
</svg>
