<svg width="60" height="60" viewBox="0 0 60 60" fill="none" xmlns="http://www.w3.org/2000/svg">
<g filter="url(#filter0_d_17522_64120)">
<g clip-path="url(#clip0_17522_64120)">
<rect x="7" y="3" width="46" height="46" rx="4" fill="#010304"/>
<circle opacity="0.25" cx="43" cy="13" r="67" fill="url(#paint0_radial_17522_64120)"/>
<path d="M37.0586 34.0013H36.2915V33.8277C36.2915 32.9756 35.6007 32.2848 34.7486 32.2848H25.2504C24.3983 32.2848 23.7076 32.9756 23.7076 33.8277V34.0013H22.9403C22.6248 34.0013 22.3689 34.2569 22.3689 34.5727C22.3689 34.8886 22.6248 35.1442 22.9403 35.1442H37.0586C37.3745 35.1442 37.6301 34.8886 37.6301 34.5727C37.6301 34.2569 37.3745 34.0013 37.0586 34.0013Z" fill="url(#paint1_linear_17522_64120)"/>
<path d="M25.26 24.8501C25.8657 26.0158 26.8885 26.9301 28.1285 27.393V29.4273H26.7742C25.9228 29.4273 25.2314 30.1187 25.2314 30.9701V31.1415H34.7685V30.9701C34.7685 30.1187 34.0771 29.4273 33.2257 29.4273H31.8714V27.393C33.1114 26.9301 34.1342 26.0158 34.7342 24.8501C36.6714 24.6901 38.2028 23.0673 38.2028 21.0844C38.2028 20.0158 37.3285 19.1473 36.26 19.1473H35.3399V17.9987H35.7171C36.0371 17.9987 36.2885 17.7473 36.2885 17.4273C36.2885 17.113 36.0371 16.8558 35.7171 16.8558H24.2771C23.9628 16.8558 23.7057 17.113 23.7057 17.4273C23.7057 17.7473 23.9628 17.9987 24.2771 17.9987H24.66V19.1473H23.7342C22.6657 19.1473 21.7971 20.0158 21.7971 21.0844C21.7971 23.0673 23.3228 24.6901 25.26 24.8501ZM35.3399 22.393V20.2901H36.26C36.7 20.2901 37.06 20.6444 37.06 21.0844C37.06 22.2672 36.2714 23.2558 35.1971 23.593C35.2885 23.2044 35.3399 22.8044 35.3399 22.393ZM26.9457 21.8216C27.26 21.8216 27.5171 22.073 27.5171 22.393C27.5171 23.7587 28.6314 24.873 29.9971 24.873C30.3171 24.873 30.5685 25.1301 30.5685 25.4444C30.5685 25.7587 30.3171 26.0158 29.9971 26.0158C28.0028 26.0158 26.3743 24.3873 26.3743 22.393C26.3743 22.073 26.6314 21.8216 26.9457 21.8216ZM23.7342 20.2901H24.66V22.393C24.66 22.8044 24.7114 23.2044 24.7971 23.593C23.7286 23.2558 22.94 22.2672 22.94 21.0844C22.94 20.6444 23.3 20.2901 23.7342 20.2901Z" fill="url(#paint2_linear_17522_64120)"/>
</g>
<rect x="6.55" y="2.55" width="46.9" height="46.9" rx="4.45" stroke="url(#paint3_linear_17522_64120)" stroke-width="0.9"/>
</g>
<defs>
<filter id="filter0_d_17522_64120" x="0.100098" y="0.0999756" width="59.7998" height="59.8" filterUnits="userSpaceOnUse" color-interpolation-filters="sRGB">
<feFlood flood-opacity="0" result="BackgroundImageFix"/>
<feColorMatrix in="SourceAlpha" type="matrix" values="0 0 0 0 0 0 0 0 0 0 0 0 0 0 0 0 0 0 127 0" result="hardAlpha"/>
<feOffset dy="4"/>
<feGaussianBlur stdDeviation="3"/>
<feComposite in2="hardAlpha" operator="out"/>
<feColorMatrix type="matrix" values="0 0 0 0 0 0 0 0 0 0 0 0 0 0 0 0 0 0 0.25 0"/>
<feBlend mode="normal" in2="BackgroundImageFix" result="effect1_dropShadow_17522_64120"/>
<feBlend mode="normal" in="SourceGraphic" in2="effect1_dropShadow_17522_64120" result="shape"/>
</filter>
<radialGradient id="paint0_radial_17522_64120" cx="0" cy="0" r="1" gradientUnits="userSpaceOnUse" gradientTransform="translate(43 13) rotate(94.4696) scale(67.2044)">
<stop stop-color="#2B8CFF"/>
<stop offset="1" stop-opacity="0"/>
</radialGradient>
<linearGradient id="paint1_linear_17522_64120" x1="25.6119" y1="31.6976" x2="26.7755" y2="38.6669" gradientUnits="userSpaceOnUse">
<stop stop-color="#2F53FF"/>
<stop offset="1" stop-color="#2FC1FF"/>
</linearGradient>
<linearGradient id="paint2_linear_17522_64120" x1="25.2833" y1="13.9222" x2="42.6176" y2="36.2619" gradientUnits="userSpaceOnUse">
<stop stop-color="#2F53FF"/>
<stop offset="1" stop-color="#2FC1FF"/>
</linearGradient>
<linearGradient id="paint3_linear_17522_64120" x1="16.775" y1="-6.44643" x2="74.016" y2="57.7907" gradientUnits="userSpaceOnUse">
<stop stop-color="#2F53FF"/>
<stop offset="1" stop-color="#2FC1FF"/>
</linearGradient>
<clipPath id="clip0_17522_64120">
<rect x="7" y="3" width="46" height="46" rx="4" fill="white"/>
</clipPath>
</defs>
</svg>
