<svg width="60" height="60" viewBox="0 0 60 60" fill="none" xmlns="http://www.w3.org/2000/svg">
<g filter="url(#filter0_d_8877_709)">
<g clip-path="url(#clip0_8877_709)">
<rect x="7" y="3" width="46" height="46" rx="4" fill="#010304"/>
<circle opacity="0.25" cx="43" cy="13" r="67" fill="url(#paint0_radial_8877_709)"/>
<path d="M41 26C41 20.49 36.51 16 31 16C25.49 16 21 20.49 21 26C21 28.9 22.25 31.51 24.23 33.34C24.23 33.35 24.23 33.35 24.22 33.36C24.32 33.46 24.44 33.54 24.54 33.63C24.6 33.68 24.65 33.73 24.71 33.77C24.89 33.92 25.09 34.06 25.28 34.2C25.35 34.25 25.41 34.29 25.48 34.34C25.67 34.47 25.87 34.59 26.08 34.7C26.15 34.74 26.23 34.79 26.3 34.83C26.5 34.94 26.71 35.04 26.93 35.13C27.01 35.17 27.09 35.21 27.17 35.24C27.39 35.33 27.61 35.41 27.83 35.48C27.91 35.51 27.99 35.54 28.07 35.56C28.31 35.63 28.55 35.69 28.79 35.75C28.86 35.77 28.93 35.79 29.01 35.8C29.29 35.86 29.57 35.9 29.86 35.93C29.9 35.93 29.94 35.94 29.98 35.95C30.32 35.98 30.66 36 31 36C31.34 36 31.68 35.98 32.01 35.95C32.05 35.95 32.09 35.94 32.13 35.93C32.42 35.9 32.7 35.86 32.98 35.8C33.05 35.79 33.12 35.76 33.2 35.75C33.44 35.69 33.69 35.64 33.92 35.56C34 35.53 34.08 35.5 34.16 35.48C34.38 35.4 34.61 35.33 34.82 35.24C34.9 35.21 34.98 35.17 35.06 35.13C35.27 35.04 35.48 34.94 35.69 34.83C35.77 34.79 35.84 34.74 35.91 34.7C36.11 34.58 36.31 34.47 36.51 34.34C36.58 34.3 36.64 34.25 36.71 34.2C36.91 34.06 37.1 33.92 37.28 33.77C37.34 33.72 37.39 33.67 37.45 33.63C37.56 33.54 37.67 33.45 37.77 33.36C37.77 33.35 37.77 33.35 37.76 33.34C39.75 31.51 41 28.9 41 26ZM35.94 30.97C33.23 29.15 28.79 29.15 26.06 30.97C25.62 31.26 25.26 31.6 24.96 31.97C23.44 30.43 22.5 28.32 22.5 26C22.5 21.31 26.31 17.5 31 17.5C35.69 17.5 39.5 21.31 39.5 26C39.5 28.32 38.56 30.43 37.04 31.97C36.75 31.6 36.38 31.26 35.94 30.97Z" fill="#2F8BFF"/>
<path d="M31 20.9302C28.93 20.9302 27.25 22.6102 27.25 24.6802C27.25 26.7102 28.84 28.3602 30.95 28.4202C30.98 28.4202 31.02 28.4202 31.04 28.4202C31.06 28.4202 31.09 28.4202 31.11 28.4202C31.12 28.4202 31.13 28.4202 31.13 28.4202C33.15 28.3502 34.74 26.7102 34.75 24.6802C34.75 22.6102 33.07 20.9302 31 20.9302Z" fill="#2F8BFF"/>
</g>
<rect x="6.55" y="2.55" width="46.9" height="46.9" rx="4.45" stroke="url(#paint1_linear_8877_709)" stroke-width="0.9"/>
</g>
<defs>
<filter id="filter0_d_8877_709" x="0.0999756" y="0.100098" width="59.8" height="59.7998" filterUnits="userSpaceOnUse" color-interpolation-filters="sRGB">
<feFlood flood-opacity="0" result="BackgroundImageFix"/>
<feColorMatrix in="SourceAlpha" type="matrix" values="0 0 0 0 0 0 0 0 0 0 0 0 0 0 0 0 0 0 127 0" result="hardAlpha"/>
<feOffset dy="4"/>
<feGaussianBlur stdDeviation="3"/>
<feComposite in2="hardAlpha" operator="out"/>
<feColorMatrix type="matrix" values="0 0 0 0 0 0 0 0 0 0 0 0 0 0 0 0 0 0 0.25 0"/>
<feBlend mode="normal" in2="BackgroundImageFix" result="effect1_dropShadow_8877_709"/>
<feBlend mode="normal" in="SourceGraphic" in2="effect1_dropShadow_8877_709" result="shape"/>
</filter>
<radialGradient id="paint0_radial_8877_709" cx="0" cy="0" r="1" gradientUnits="userSpaceOnUse" gradientTransform="translate(43 13) rotate(94.4696) scale(67.2044)">
<stop stop-color="#2B8CFF"/>
<stop offset="1" stop-opacity="0"/>
</radialGradient>
<linearGradient id="paint1_linear_8877_709" x1="16.775" y1="-6.44643" x2="74.016" y2="57.7907" gradientUnits="userSpaceOnUse">
<stop stop-color="#2F53FF"/>
<stop offset="1" stop-color="#2FC1FF"/>
</linearGradient>
<clipPath id="clip0_8877_709">
<rect x="7" y="3" width="46" height="46" rx="4" fill="white"/>
</clipPath>
</defs>
</svg>
