<svg width="9" height="9" viewBox="0 0 9 9" fill="none" xmlns="http://www.w3.org/2000/svg">
<g clip-path="url(#clip0_8640_4923)">
<path d="M7.89477 4.15336L8.39777 4.78211C8.44645 4.84431 8.48431 4.91192 8.51135 4.98494C8.5384 5.05796 8.55192 5.13503 8.55192 5.21616C8.55192 5.29729 8.53975 5.37436 8.51541 5.44738C8.49107 5.5204 8.45592 5.58665 8.40994 5.64615C8.36397 5.70564 8.30853 5.75702 8.24363 5.80029C8.17872 5.84356 8.10841 5.87601 8.03269 5.89765L7.25791 6.11264C7.26332 6.25056 7.27008 6.38984 7.27819 6.53046C7.2863 6.67109 7.29171 6.81171 7.29441 6.95234C7.29441 7.04969 7.27684 7.14029 7.24168 7.22412C7.20652 7.30796 7.1565 7.38097 7.09159 7.44317C7.02669 7.50537 6.95232 7.5554 6.86849 7.59326C6.78465 7.63112 6.69271 7.65005 6.59265 7.65005C6.50881 7.65005 6.42633 7.63518 6.3452 7.60543L5.59475 7.32148L5.1526 7.9908C5.0877 8.09086 5.00386 8.16793 4.9011 8.22202C4.79834 8.2761 4.68611 8.3045 4.56441 8.3072C4.44542 8.3072 4.33455 8.28016 4.23178 8.22607C4.12902 8.17199 4.04383 8.09356 3.97622 7.9908L3.53407 7.32148L2.78362 7.60543C2.70249 7.63518 2.62001 7.65005 2.53618 7.65005C2.43882 7.65005 2.34823 7.63247 2.26439 7.59732C2.18056 7.56216 2.10619 7.51213 2.04129 7.44723C1.97639 7.38232 1.92636 7.30796 1.8912 7.22412C1.85604 7.14029 1.83711 7.04969 1.83441 6.95234C1.83441 6.81171 1.83847 6.67109 1.84658 6.53046C1.85469 6.38984 1.8628 6.25056 1.87092 6.11264L1.09613 5.89765C1.01771 5.87601 0.947395 5.84356 0.885196 5.80029C0.822997 5.75702 0.76891 5.70564 0.722937 5.64615C0.676964 5.58665 0.641808 5.5204 0.617469 5.44738C0.59313 5.37436 0.579609 5.29729 0.576904 5.21616C0.576904 5.13773 0.590426 5.06201 0.617469 4.989C0.644512 4.91598 0.682372 4.84702 0.73105 4.78211L1.23405 4.15336L0.73105 3.5246C0.628286 3.3975 0.576904 3.25282 0.576904 3.09056C0.576904 3.00943 0.589074 2.93235 0.613413 2.85934C0.637751 2.78632 0.672907 2.72006 0.718881 2.66057C0.764854 2.60107 0.81894 2.54969 0.881139 2.50642C0.943339 2.46315 1.015 2.4307 1.09613 2.40907L1.87092 2.19407C1.86551 2.05615 1.85875 1.91688 1.85064 1.77625C1.84252 1.63563 1.83711 1.495 1.83441 1.35438C1.83441 1.25702 1.85199 1.16643 1.88714 1.08259C1.9223 0.998761 1.97233 0.925744 2.03723 0.863544C2.10214 0.801345 2.1765 0.751315 2.26034 0.713454C2.34417 0.675593 2.43612 0.656663 2.53618 0.656663C2.62001 0.656663 2.70249 0.671537 2.78362 0.701285L3.53407 0.985239L3.97622 0.315918C4.04113 0.215858 4.12496 0.138785 4.22773 0.084698C4.33049 0.0306115 4.44272 0.00221605 4.56441 -0.000488281C4.6834 -0.000488281 4.79428 0.026555 4.89704 0.0806415C4.99981 0.134728 5.08499 0.213154 5.1526 0.315918L5.59475 0.985239L6.3452 0.701285C6.42633 0.671537 6.50881 0.656663 6.59265 0.656663C6.69 0.656663 6.7806 0.674241 6.86443 0.709398C6.94826 0.744554 7.02263 0.794584 7.08753 0.859488C7.15244 0.924392 7.20247 0.998761 7.23762 1.08259C7.27278 1.16643 7.29171 1.25702 7.29441 1.35438C7.29441 1.495 7.29036 1.63563 7.28225 1.77625C7.27413 1.91688 7.26602 2.05615 7.25791 2.19407L8.03269 2.40907C8.10841 2.4307 8.17872 2.46315 8.24363 2.50642C8.30853 2.54969 8.36262 2.60107 8.40589 2.66057C8.44916 2.72006 8.48431 2.78632 8.51135 2.85934C8.5384 2.93235 8.55192 3.00943 8.55192 3.09056C8.55192 3.25282 8.50054 3.3975 8.39777 3.5246L7.89477 4.15336ZM4.04518 5.6502L6.35331 3.34612L5.89088 2.88368L4.04518 4.73344L3.23795 3.92214L2.77551 4.38458L4.04518 5.6502Z" fill="url(#paint0_linear_8640_4923)"/>
</g>
<defs>
<linearGradient id="paint0_linear_8640_4923" x1="2.2716" y1="-1.70653" x2="12.6495" y2="9.47338" gradientUnits="userSpaceOnUse">
<stop stop-color="#2F53FF"/>
<stop offset="1" stop-color="#2FC1FF"/>
</linearGradient>
<clipPath id="clip0_8640_4923">
<rect width="8.30765" height="8.30769" fill="white" transform="translate(0.577148)"/>
</clipPath>
</defs>
</svg>
